<?xml version="1.0" standalone="no"?><!DOCTYPE svg PUBLIC "-//W3C//DTD SVG 1.1//EN" "http://www.w3.org/Graphics/SVG/1.1/DTD/svg11.dtd"><svg t="1725798266162" class="icon" viewBox="0 0 1026 1024" version="1.1" xmlns="http://www.w3.org/2000/svg" p-id="10429" xmlns:xlink="http://www.w3.org/1999/xlink" width="200.390625" height="200"><path d="M474.354427 3.190119a11.44043 11.44043 0 0 0-5.991845 1.997282v-1.997282c1.997282-2.662377 3.994564-2.662377 5.991845 0z" fill="#60BDAC" opacity=".694" p-id="10430"></path><path d="M468.362582 3.190119v1.997282l-5.991845 3.994564c0-3.994564 1.997282-5.991845 5.991845-5.991846z" fill="#0F4A5B" opacity=".251" p-id="10431"></path><path d="M476.351709 5.187401c2.662377 0 3.994564 1.332187 3.994564 3.994564-1.997282-0.665095-3.329469-1.997282-3.994564-3.994564z" fill="#081306" opacity=".016" p-id="10432"></path><path d="M474.354427 3.190119c1.332187 0 1.997282 0.665095 1.997282 1.997282 0.665095 1.997282 1.997282 3.329469 3.994564 3.994564 3.994564 2.662377 7.324032 5.991845 9.986409 9.986409 0.665095 1.997282 1.997282 3.329469 3.994563 3.994563 1.997282 0.665095 3.329469 1.997282 3.994564 3.994564 0.665095 1.997282 1.997282 3.329469 3.994564 3.994564 1.997282 0.665095 3.329469 1.997282 3.994563 3.994563 0.665095 1.997282 1.997282 3.329469 3.994564 3.994564 1.332187 0 1.997282 0.665095 1.997282 1.997282 0.665095 1.997282 1.997282 3.329469 3.994563 3.994563 1.997282 0.665095 3.329469 1.997282 3.994564 3.994564 0.665095 1.997282 1.997282 3.329469 3.994563 3.994563 1.997282 0.665095 3.329469 1.997282 3.994564 3.994564 0.665095 1.997282 1.997282 3.329469 3.994564 3.994564 1.997282 0.665095 3.329469 1.997282 3.994563 3.994563 0.665095 1.997282 1.997282 3.329469 3.994564 3.994564 1.332187 0 1.997282 0.665095 1.997282 1.997282 0.665095 1.997282 1.997282 3.329469 3.994563 3.994563 1.997282 0.665095 3.329469 1.997282 3.994564 3.994564 0.665095 1.997282 1.997282 3.329469 3.994563 3.994563 1.997282 0.665095 3.329469 1.997282 3.994564 3.994564 0.665095 1.997282 1.997282 3.329469 3.994564 3.994564 1.997282 0.665095 3.329469 1.997282 3.994563 3.994563 0.665095 1.997282 1.997282 3.329469 3.994564 3.994564 1.332187 0 1.997282 0.665095 1.997282 1.997282 0.665095 1.997282 1.997282 3.329469 3.994563 3.994563 1.997282 0.665095 3.329469 1.997282 3.994564 3.994564 0.665095 1.997282 1.997282 3.329469 3.994563 3.994563 1.997282 0.665095 3.329469 1.997282 3.994564 3.994564 0.665095 1.997282 1.997282 3.329469 3.994564 3.994564 1.997282 0.665095 3.329469 1.997282 3.994563 3.994563 0.665095 1.997282 1.997282 3.329469 3.994564 3.994564 1.332187 0 1.997282 0.665095 1.997282 1.997282 0.665095 1.997282 1.997282 3.329469 3.994563 3.994563 1.997282 0.665095 3.329469 1.997282 3.994564 3.994564 0.665095 1.997282 1.997282 3.329469 3.994563 3.994563 1.997282 0.665095 3.329469 1.997282 3.994564 3.994564 0.665095 1.997282 1.997282 3.329469 3.994564 3.994564 3.994564 2.662377 7.324032 5.991845 9.986409 9.986409 0.665095 1.997282 1.997282 3.329469 3.994563 3.994563 1.997282 0.665095 3.329469 1.997282 3.994564 3.994564 0.665095 1.997282 1.997282 3.329469 3.994563 3.994563 1.997282 0.665095 3.329469 1.997282 3.994564 3.994564 0.665095 1.997282 1.997282 3.329469 3.994564 3.994564 3.994564 2.662377 7.324032 5.991845 9.986409 9.986409 0.665095 1.997282 1.997282 3.329469 3.994563 3.994563 1.997282 0.665095 3.329469 1.997282 3.994564 3.994564 0.665095 1.997282 1.997282 3.329469 3.994563 3.994563 1.997282 0.665095 3.329469 1.997282 3.994564 3.994564 0.665095 1.997282 1.997282 3.329469 3.994564 3.994564 1.332187 0 1.997282 0.665095 1.997281 1.997281 0.665095 1.997282 1.997282 3.329469 3.994564 3.994564 1.997282 0.665095 3.329469 1.997282 3.994564 3.994564 0.665095 1.997282 1.997282 3.329469 3.994563 3.994563 1.997282 0.665095 3.329469 1.997282 3.994564 3.994564 0.665095 1.997282 1.997282 3.329469 3.994563 3.994563 1.332187 0 1.997282 0.665095 1.997282 1.997282 0.621155 1.953342 1.953342 3.285529 3.994564 3.994564a408.300324 408.300324 0 0 1 33.95379-33.953791c2.206996-2.19701 4.869373-3.529197 7.989128-3.994563-0.145802 3.049849 1.186385 5.047131 3.994563 5.991845l3.994564 1.997282c-0.145802 3.049849 1.186385 5.047131 3.994563 5.991845l9.986409 7.989127c-0.145802 3.049849 1.186385 5.047131 3.994564 5.991846l3.994564 1.997282c-0.145802 3.049849 1.186385 5.047131 3.994563 5.991845l3.994564 1.997282c-0.145802 3.049849 1.186385 5.047131 3.994563 5.991845l9.986409 7.989127c-0.145802 3.049849 1.186385 5.047131 3.994564 5.991846l3.994564 1.997282c-0.145802 3.049849 1.186385 5.047131 3.994563 5.991845l17.975536 15.978254c-0.145802 3.049849 1.186385 5.047131 3.994564 5.991846l3.994564 1.997282c-0.145802 3.049849 1.186385 5.047131 3.994563 5.991845l69.904863 67.907581c-0.145802 3.049849 1.186385 5.047131 3.994564 5.991846l3.994563 1.997281c-0.145802 3.049849 1.186385 5.047131 3.994564 5.991846 3.529197 4.773504 8.188855 8.102972 13.980973 9.986409 1.997282 0.665095 3.329469 1.997282 3.994563 3.994563 0.665095 1.997282 1.997282 3.329469 3.994564 3.994564 1.997282 0.665095 3.329469 1.997282 3.994563 3.994564 0.665095 1.997282 1.997282 3.329469 3.994564 3.994563 1.997282 0.665095 3.329469 1.997282 3.994564 3.994564 0.665095 1.997282 1.997282 3.329469 3.994563 3.994563 1.332187 0 1.997282 0.665095 1.997282 1.997282 0.665095 1.997282 1.997282 3.329469 3.994564 3.994564 1.997282 0.665095 3.329469 1.997282 3.994563 3.994563 0.665095 1.997282 1.997282 3.329469 3.994564 3.994564 1.997282 0.665095 3.329469 1.997282 3.994563 3.994564 0.665095 1.997282 1.997282 3.329469 3.994564 3.994563 3.994564 2.662377 7.324032 5.991845 9.986409 9.986409 0.665095 1.997282 1.997282 3.329469 3.994564 3.994564 1.997282 0.665095 3.329469 1.997282 3.994563 3.994563 0.665095 1.997282 1.997282 3.329469 3.994564 3.994564 1.997282 0.665095 3.329469 1.997282 3.994563 3.994564 0.665095 1.997282 1.997282 3.329469 3.994564 3.994563l3.994564 1.997282v7.989127c-1.332187 0-1.997282 0.665095-1.997282 1.997282-3.049849-0.145802-5.047131 1.186385-5.991846 3.994564 0 1.332187-0.665095 1.997282-1.997281 1.997281a13.076204 13.076204 0 0 0-5.991846 5.991846c0 1.332187-0.665095 1.997282-1.997282 1.997282a13.076204 13.076204 0 0 0-5.991845 5.991845v1.997282c-3.049849-0.145802-5.047131 1.186385-5.991845 3.994563l-1.997282 3.994564c-3.049849-0.145802-5.047131 1.186385-5.991846 3.994564 0 1.332187-0.665095 1.997282-1.997281 1.997281a13.076204 13.076204 0 0 0-5.991846 5.991846c0 1.332187-0.665095 1.997282-1.997282 1.997282-1.997282 0.665095-3.329469 1.997282-3.994563 3.994563l-1.997282 3.994564c-3.049849-0.145802-5.047131 1.186385-5.991845 3.994563l-1.997282 3.994564c-3.049849-0.145802-5.047131 1.186385-5.991846 3.994564 0 1.332187-0.665095 1.997282-1.997281 1.997281a13.076204 13.076204 0 0 0-5.991846 5.991846c0 1.332187-0.665095 1.997282-1.997282 1.997282-1.997282 0.665095-3.329469 1.997282-3.994563 3.994563l-1.997282 3.994564c-3.049849-0.145802-5.047131 1.186385-5.991845 3.994563 0 1.332187-0.665095 1.997282-1.997282 1.997282a13.076204 13.076204 0 0 0-5.991846 5.991846c0 1.332187-0.665095 1.997282-1.997281 1.997281a13.076204 13.076204 0 0 0-5.991846 5.991846c0 1.332187-0.665095 1.997282-1.997282 1.997282-1.997282 0.665095-3.329469 1.997282-3.994563 3.994563l-1.997282 3.994564c-3.049849-0.145802-5.047131 1.186385-5.991845 3.994563 0 1.332187-0.665095 1.997282-1.997282 1.997282a13.076204 13.076204 0 0 0-5.991846 5.991846c0 1.332187-0.665095 1.997282-1.997281 1.997281a13.076204 13.076204 0 0 0-5.991846 5.991846v1.997282c-3.049849-0.145802-5.047131 1.186385-5.991845 3.994563l-1.997282 3.994564c-3.049849-0.145802-5.047131 1.186385-5.991845 3.994563 0 1.332187-0.665095 1.997282-1.997282 1.997282a13.076204 13.076204 0 0 0-5.991846 5.991846c0 1.332187-0.665095 1.997282-1.997281 1.997281a13.076204 13.076204 0 0 0-5.991846 5.991846v1.997282c-3.049849-0.145802-5.047131 1.186385-5.991845 3.994563l-1.997282 3.994564c-3.049849-0.145802-5.047131 1.186385-5.991845 3.994563 0 1.332187-0.665095 1.997282-1.997282 1.997282a13.076204 13.076204 0 0 0-5.991846 5.991846c0 1.332187-0.665095 1.997282-1.997281 1.997281-1.997282 0.665095-3.329469 1.997282-3.994564 3.994564l-1.997282 3.994564c-3.049849-0.145802-5.047131 1.186385-5.991845 3.994563l-1.997282 3.994564c-3.049849-0.145802-5.047131 1.186385-5.991845 3.994563 0 1.332187-0.665095 1.997282-1.997282 1.997282a13.076204 13.076204 0 0 0-5.991846 5.991846c0 1.332187-0.665095 1.997282-1.997281 1.997281-1.997282 0.665095-3.329469 1.997282-3.994564 3.994564l-1.997282 3.994564c-3.049849-0.145802-5.047131 1.186385-5.991845 3.994563 0 1.332187-0.665095 1.997282-1.997282 1.997282-2.047214 0.792921-2.38076 2.123111-0.998641 3.994564 2.898056 3.922661 6.559073 6.585038 10.98505 7.989127 0 3.994564 1.997282 5.991845 5.991845 5.991845 0.665095 4.659658 3.329469 7.324032 7.989128 7.989127 0.665095 4.659658 3.329469 7.324032 7.989127 7.989128a26.418046 26.418046 0 0 1 3.994563 9.986409 4.8494 4.8494 0 0 0-3.994563 0.99864 4828.752311 4828.752311 0 0 0-141.807008 144.802931c-0.665095 1.997282-1.997282 3.329469-3.994564 3.994564-1.997282 0.665095-3.329469 1.997282-3.994563 3.994563-0.665095 1.997282-1.997282 3.329469-3.994564 3.994564-1.997282 0.665095-3.329469 1.997282-3.994563 3.994563-0.665095 1.997282-1.997282 3.329469-3.994564 3.994564-1.997282 0.665095-3.329469 1.997282-3.994564 3.994564 0 1.332187-0.665095 1.997282-1.997281 1.997281-1.997282 0.665095-3.329469 1.997282-3.994564 3.994564-0.665095 1.997282-1.997282 3.329469-3.994564 3.994564-1.997282 0.665095-3.329469 1.997282-3.994563 3.994563-0.665095 1.997282-1.997282 3.329469-3.994564 3.994564-1.997282 0.665095-3.329469 1.997282-3.994563 3.994563-2.662377 3.994564-5.991845 7.324032-9.986409 9.986409-1.997282 0.665095-3.329469 1.997282-3.994564 3.994564-0.665095 1.997282-1.997282 3.329469-3.994564 3.994564-1.997282 0.665095-3.329469 1.997282-3.994563 3.994563-0.665095 1.997282-1.997282 3.329469-3.994564 3.994564-1.997282 0.665095-3.329469 1.997282-3.994563 3.994563-2.662377 3.994564-5.991845 7.324032-9.986409 9.986409-1.997282 0.665095-3.329469 1.997282-3.994564 3.994564-0.665095 1.997282-1.997282 3.329469-3.994564 3.994564-1.997282 0.665095-3.329469 1.997282-3.994563 3.994563-0.665095 1.997282-1.997282 3.329469-3.994564 3.994564-1.997282 0.665095-3.329469 1.997282-3.994563 3.994563-2.662377 3.994564-5.991845 7.324032-9.986409 9.986409-1.997282 0.665095-3.329469 1.997282-3.994564 3.994564-1.571861 3.20364-4.234237 4.535827-7.989127 3.994564 0-3.994564-1.997282-5.991845-5.991846-5.991846v-1.997282c-0.944714-2.808178-2.941996-4.140365-5.991845-3.994563 0-1.332187-0.665095-1.997282-1.997282-1.997282 0-3.994564-1.997282-5.991845-5.991845-5.991845 0-1.332187-0.665095-1.997282-1.997282-1.997282 0-3.994564-1.997282-5.991845-5.991845-5.991846v-1.997281c-1.521929-3.519211-4.186303-5.516492-7.989128-5.991846v-1.997282c-0.944714-2.808178-2.941996-4.140365-5.991845-3.994563 0-1.332187-0.665095-1.997282-1.997282-1.997282 0-3.994564-1.997282-5.991845-5.991845-5.991845 0-1.332187-0.665095-1.997282-1.997282-1.997282 0-3.994564-1.997282-5.991845-5.991845-5.991846v-1.997281c-1.521929-3.519211-4.186303-5.516492-7.989128-5.991846v-1.997282c-0.944714-2.808178-2.941996-4.140365-5.991845-3.994563 0-1.332187-0.665095-1.997282-1.997282-1.997282 0-3.994564-1.997282-5.991845-5.991845-5.991845v-1.997282c-1.521929-3.519211-4.186303-5.516492-7.989127-5.991846v-1.997281c-1.521929-3.519211-4.186303-5.516492-7.989128-5.991846v-1.997282c-0.944714-2.808178-2.941996-4.140365-5.991845-3.994563 0-1.332187-0.665095-1.997282-1.997282-1.997282 0-3.994564-1.997282-5.991845-5.991845-5.991845v-1.997282c-1.521929-3.519211-4.186303-5.516492-7.989127-5.991846v-1.997281c-1.521929-3.519211-4.186303-5.516492-7.989128-5.991846v-1.997282c-0.944714-2.808178-2.941996-4.140365-5.991845-3.994563 0-1.332187-0.665095-1.997282-1.997282-1.997282 0-3.994564-1.997282-5.991845-5.991845-5.991845v-1.997282c-1.521929-3.519211-4.186303-5.516492-7.989127-5.991846v-1.997281c-0.944714-2.808178-2.941996-4.140365-5.991846-3.994564 0-1.332187-0.665095-1.997282-1.997282-1.997282 0-3.994564-1.997282-5.991845-5.991845-5.991845 0-1.332187-0.665095-1.997282-1.997282-1.997282 0-3.994564-1.997282-5.991845-5.991845-5.991845v-1.997282c-1.521929-3.519211-4.186303-5.516492-7.989127-5.991846v-1.997281c-0.944714-2.808178-2.941996-4.140365-5.991846-3.994564 0-1.332187-0.665095-1.997282-1.997282-1.997282 0-3.994564-1.997282-5.991845-5.991845-5.991845 0-1.332187-0.665095-1.997282-1.997282-1.997282 0-3.994564-1.997282-5.991845-5.991845-5.991845v-1.997282c-1.521929-3.519211-4.186303-5.516492-7.989127-5.991846v-1.997281c-0.944714-2.808178-2.941996-4.140365-5.991846-3.994564 0-1.332187-0.665095-1.997282-1.997282-1.997282 0-3.994564-1.997282-5.991845-5.991845-5.991845 0-1.332187-0.665095-1.997282-1.997282-1.997282 0-3.994564-1.997282-5.991845-5.991845-5.991845 0-1.332187-0.665095-1.997282-1.997282-1.997282-0.792921-2.047214-2.123111-2.38076-3.994564-0.998641a835.405056 835.405056 0 0 0-33.95379 34.952431 9.854588 9.854588 0 0 1-5.991846-0.998641c-11.166803-12.177427-23.150493-23.162477-35.951072-32.955149-7.989127-11.983691-17.975536-21.9701-29.959227-29.959227a2811.074269 2811.074269 0 0 0-107.853217-110.84914 4.851397 4.851397 0 0 0-3.994564-0.998641c-6.786764-9.798665-14.775891-18.786433-23.967381-26.963304a9.854588 9.854588 0 0 0-5.991846-0.998641v-1.997282c-1.521929-3.519211-4.186303-5.516492-7.989127-5.991845v-1.997282c-0.944714-2.808178-2.941996-4.140365-5.991845-3.994564 0-1.332187-0.665095-1.997282-1.997282-1.997282 0-3.994564-1.997282-5.991845-5.991846-5.991845v-1.997282c-1.521929-3.519211-4.186303-5.516492-7.989127-5.991845v-1.997282c-0.944714-2.808178-2.941996-4.140365-5.991845-3.994564l-1.997282-3.994563c-0.944714-2.808178-2.941996-4.140365-5.991845-3.994564 0-1.332187-0.665095-1.997282-1.997282-1.997282 0-3.994564-1.997282-5.991845-5.991846-5.991845v-1.997282c-1.521929-3.519211-4.186303-5.516492-7.989127-5.991845-5.560433-4.897335-4.895338-8.891899 1.997282-11.983691a13.070212 13.070212 0 0 0 5.991845-5.991845c0-1.332187 0.665095-1.997282 1.997282-1.997282a13.070212 13.070212 0 0 0 5.991846-5.991846c0-1.332187 0.665095-1.997282 1.997281-1.997281 1.997282-0.665095 3.329469-1.997282 3.994564-3.994564 0-1.332187 0.665095-1.997282 1.997282-1.997282a13.070212 13.070212 0 0 0 5.991845-5.991845c0-1.332187 0.665095-1.997282 1.997282-1.997282a13.070212 13.070212 0 0 0 5.991845-5.991845c1.997282-4.659658 5.326751-7.989127 9.986409-9.986409 1.997282-0.665095 3.329469-1.997282 3.994564-3.994564 0-1.332187 0.665095-1.997282 1.997282-1.997282a13.070212 13.070212 0 0 0 5.991845-5.991845c0-1.332187 0.665095-1.997282 1.997282-1.997282a13.070212 13.070212 0 0 0 5.991845-5.991845c1.997282-4.659658 5.326751-7.989127 9.986409-9.986409 1.997282-0.665095 3.329469-1.997282 3.994564-3.994564 0-1.332187 0.665095-1.997282 1.997282-1.997282a13.070212 13.070212 0 0 0 5.991845-5.991845c0-1.332187 0.665095-1.997282 1.997282-1.997282a13.070212 13.070212 0 0 0 5.991845-5.991845c1.997282-4.659658 5.326751-7.989127 9.986409-9.986409 1.997282-0.665095 3.329469-1.997282 3.994564-3.994564 0-1.332187 0.665095-1.997282 1.997282-1.997282a13.070212 13.070212 0 0 0 5.991845-5.991845c0-1.332187 0.665095-1.997282 1.997282-1.997282a13.070212 13.070212 0 0 0 5.991845-5.991845c0-1.332187 0.665095-1.997282 1.997282-1.997282 1.997282-0.665095 3.329469-1.997282 3.994564-3.994564 0-1.332187 0.665095-1.997282 1.997282-1.997282a13.070212 13.070212 0 0 0 5.991845-5.991845c0-1.332187 0.665095-1.997282 1.997282-1.997282a13.070212 13.070212 0 0 0 5.991845-5.991845c0-1.332187 0.665095-1.997282 1.997282-1.997282a13.070212 13.070212 0 0 0 5.991845-5.991845c0-1.332187 0.665095-1.997282 1.997282-1.997282 1.997282-0.665095 3.329469-1.997282 3.994564-3.994564 0-1.332187 0.665095-1.997282 1.997282-1.997282a13.070212 13.070212 0 0 0 5.991845-5.991845c0-1.332187 0.665095-1.997282 1.997282-1.997282a13.070212 13.070212 0 0 0 5.991845-5.991845c1.997282-4.659658 5.326751-7.989127 9.986409-9.986409 1.997282-0.665095 3.329469-1.997282 3.994564-3.994564 0-1.332187 0.665095-1.997282 1.997282-1.997282a13.076204 13.076204 0 0 0 5.991845-5.991845c0-1.332187 0.665095-1.997282 1.997282-1.997282a13.076204 13.076204 0 0 0 5.991845-5.991845c1.997282-4.659658 5.326751-7.989127 9.986409-9.986409 1.997282-0.665095 3.329469-1.997282 3.994564-3.994564 0-1.332187 0.665095-1.997282 1.997282-1.997282 4.605732-1.747622 5.937919-4.409998 3.994563-7.989127-9.986409-13.980973-21.9701-25.964663-35.951072-35.951072v-7.989127c3.329469-1.997282 5.991845-4.659658 7.989127-7.989128a33.114932 33.114932 0 0 1 7.989127-4.993204 63.609431 63.609431 0 0 0 13.980973-16.976895c3.329469-1.997282 5.991845-4.659658 7.989127-7.989128 6.65694-2.662377 11.318596-7.324032 13.980973-13.980972 0-1.332187 0.665095-1.997282 1.997281-1.997282a13.076204 13.076204 0 0 0 5.991846-5.991845 13.076204 13.076204 0 0 0 5.991845-5.991846c0-1.332187 0.665095-1.997282 1.997282-1.997282a13.074207 13.074207 0 0 0 5.991845-5.991845c0-1.332187 0.665095-1.997282 1.997282-1.997282a13.070212 13.070212 0 0 0 5.991846-5.991845c0-1.332187 0.665095-1.997282 1.997281-1.997282a13.070212 13.070212 0 0 0 5.991846-5.991845 13.070212 13.070212 0 0 0 5.991845-5.991846c0-1.332187 0.665095-1.997282 1.997282-1.997282a13.070212 13.070212 0 0 0 5.991845-5.991845c0-1.332187 0.665095-1.997282 1.997282-1.997282a13.070212 13.070212 0 0 0 5.991846-5.991845c0-1.332187 0.665095-1.997282 1.997281-1.997282a13.070212 13.070212 0 0 0 5.991846-5.991845 33.094959 33.094959 0 0 1 7.989127-4.993205 63.613425 63.613425 0 0 0 13.980973-16.976895c3.329469-1.997282 5.991845-4.659658 7.989127-7.989127a33.094959 33.094959 0 0 1 7.989127-4.993205 63.613425 63.613425 0 0 0 13.980973-16.976895c3.329469-1.997282 5.991845-4.659658 7.989127-7.989127 6.65694-2.662377 11.318596-7.324032 13.980972-13.980973 0-1.332187 0.665095-1.997282 1.997282-1.997282a13.070212 13.070212 0 0 0 5.991846-5.991845 13.070212 13.070212 0 0 0 5.991845-5.991846c0-1.332187 0.665095-1.997282 1.997282-1.997281a13.070212 13.070212 0 0 0 5.991845-5.991846c0-1.332187 0.665095-1.997282 1.997282-1.997282a13.070212 13.070212 0 0 0 5.991845-5.991845c0-1.332187 0.665095-1.997282 1.997282-1.997282a13.070212 13.070212 0 0 0 5.991846-5.991845 33.094959 33.094959 0 0 1 7.989127-4.993205 63.613425 63.613425 0 0 0 13.980972-16.976895c0-1.332187 0.665095-1.997282 1.997282-1.997282a13.070212 13.070212 0 0 0 5.991846-5.991845l5.991845-3.994564a11.44043 11.44043 0 0 1 5.991845-1.997282z" fill="#51B44B" p-id="10433"></path><path d="M462.370737 9.181965a13.070212 13.070212 0 0 1-5.991846 5.991845c0-3.994564 1.997282-5.991845 5.991846-5.991845z" fill="#064A5A" opacity=".259" p-id="10434"></path><path d="M490.332682 19.168374c2.662377 0 3.994564 1.332187 3.994563 3.994563-1.997282-0.665095-3.329469-1.997282-3.994563-3.994563z" fill="#061206" opacity=".016" p-id="10435"></path><path d="M454.381609 17.171092a63.613425 63.613425 0 0 1-13.980972 16.976895 33.094959 33.094959 0 0 0-7.989127 4.993205 4.851397 4.851397 0 0 1 0.998641-3.994564 150.870673 150.870673 0 0 1 20.971458-17.975536z" fill="#106772" opacity=".247" p-id="10436"></path><path d="M498.321809 27.157501c2.662377 0 3.994564 1.332187 3.994564 3.994564-1.997282-0.665095-3.329469-1.997282-3.994564-3.994564z" fill="#071206" opacity=".02" p-id="10437"></path><path d="M506.310936 35.146628c2.662377 0 3.994564 1.332187 3.994564 3.994564-1.997282-0.665095-3.329469-1.997282-3.994564-3.994564z" fill="#081306" opacity=".012" p-id="10438"></path><path d="M432.41151 39.141192a13.070212 13.070212 0 0 1-5.991846 5.991845c0-3.994564 1.997282-5.991845 5.991846-5.991845z" fill="#064B5B" opacity=".263" p-id="10439"></path><path d="M512.302782 41.138474c2.662377 0 3.994564 1.332187 3.994563 3.994563-1.997282-0.665095-3.329469-1.997282-3.994563-3.994563z" fill="#081206" opacity=".004" p-id="10440"></path><path d="M424.422382 47.130319a13.070212 13.070212 0 0 1-5.991845 5.991845c0-3.994564 1.997282-5.991845 5.991845-5.991845z" fill="#064C5D" opacity=".259" p-id="10441"></path><path d="M520.291909 49.127601c2.662377 0 3.994564 1.332187 3.994563 3.994563-1.997282-0.665095-3.329469-1.997282-3.994563-3.994563z" fill="#061206" opacity=".02" p-id="10442"></path><path d="M416.433255 55.119446a13.070212 13.070212 0 0 1-5.991845 5.991846c0-3.994564 1.997282-5.991845 5.991845-5.991846z" fill="#0A5162" opacity=".251" p-id="10443"></path><path d="M528.281036 57.116728c2.662377 0 3.994564 1.332187 3.994564 3.994564-1.997282-0.665095-3.329469-1.997282-3.994564-3.994564z" fill="#071206" opacity=".02" p-id="10444"></path><path d="M408.444128 63.108573a13.070212 13.070212 0 0 1-5.991845 5.991846c0-3.994564 1.997282-5.991845 5.991845-5.991846z" fill="#0D5264" opacity=".247" p-id="10445"></path><path d="M536.270163 65.105855c2.662377 0 3.994564 1.332187 3.994564 3.994564-1.997282-0.665095-3.329469-1.997282-3.994564-3.994564z" fill="#081307" opacity=".012" p-id="10446"></path><path d="M402.452283 69.100419a13.070212 13.070212 0 0 1-5.991846 5.991845c0-3.994564 1.997282-5.991845 5.991846-5.991845z" fill="#054B5C" opacity=".263" p-id="10447"></path><path d="M542.262009 71.097701c2.662377 0 3.994564 1.332187 3.994563 3.994563-1.997282-0.665095-3.329469-1.997282-3.994563-3.994563z" fill="#071206" opacity=".008" p-id="10448"></path><path d="M550.251136 79.086828c2.662377 0 3.994564 1.332187 3.994563 3.994563-1.997282-0.665095-3.329469-1.997282-3.994563-3.994563z" fill="#061106" opacity=".02" p-id="10449"></path><path d="M394.463155 77.089546c-2.662377 6.65694-7.324032 11.318596-13.980972 13.980973a4.851397 4.851397 0 0 1 0.998641-3.994564 262.384907 262.384907 0 0 1 12.982331-9.986409z" fill="#0E616F" opacity=".251" p-id="10450"></path><path d="M558.240263 87.075955c2.662377 0 3.994564 1.332187 3.994564 3.994564-1.997282-0.665095-3.329469-1.997282-3.994564-3.994564z" fill="#071206" opacity=".02" p-id="10451"></path><path d="M380.482183 91.070519c-1.997282 3.329469-4.659658 5.991845-7.989127 7.989127 0.665095-4.659658 3.329469-7.324032 7.989127-7.989127z" fill="#0A4959" opacity=".263" p-id="10452"></path><path d="M566.22939 95.065082c2.662377 0 3.994564 1.332187 3.994564 3.994564-1.997282-0.665095-3.329469-1.997282-3.994564-3.994564z" fill="#091306" opacity=".008" p-id="10453"></path><path d="M572.221236 101.056928c2.662377 0 3.994564 1.332187 3.994563 3.994563-1.997282-0.665095-3.329469-1.997282-3.994563-3.994563z" fill="#071206" opacity=".012" p-id="10454"></path><path d="M372.493056 99.059646a63.613425 63.613425 0 0 1-13.980973 16.976895 33.094959 33.094959 0 0 0-7.989127 4.993205 4.851397 4.851397 0 0 1 0.998641-3.994564 150.870673 150.870673 0 0 1 20.971459-17.975536z" fill="#0F6772" opacity=".255" p-id="10455"></path><path d="M580.210363 109.046055c2.662377 0 3.994564 1.332187 3.994563 3.994563-1.997282-0.665095-3.329469-1.997282-3.994563-3.994563z" fill="#061105" opacity=".02" p-id="10456"></path><path d="M588.19949 117.035182c2.662377 0 3.994564 1.332187 3.994564 3.994564-1.997282-0.665095-3.329469-1.997282-3.994564-3.994564z" fill="#081206" opacity=".016" p-id="10457"></path><path d="M350.522956 121.029746c-1.997282 3.329469-4.659658 5.991845-7.989127 7.989127 0.665095-4.659658 3.329469-7.324032 7.989127-7.989127z" fill="#0A4859" opacity=".259" p-id="10458"></path><path d="M596.188617 125.024309c2.662377 0 3.994564 1.332187 3.994564 3.994564-1.997282-0.665095-3.329469-1.997282-3.994564-3.994564z" fill="#091307" opacity=".004" p-id="10459"></path><path d="M602.180463 131.016155c2.662377 0 3.994564 1.332187 3.994563 3.994563-1.997282-0.665095-3.329469-1.997282-3.994563-3.994563z" fill="#071206" opacity=".016" p-id="10460"></path><path d="M342.533829 129.018873a63.613425 63.613425 0 0 1-13.980973 16.976895 33.094959 33.094959 0 0 0-7.989127 4.993205 4.851397 4.851397 0 0 1 0.998641-3.994564 150.870673 150.870673 0 0 1 20.971459-17.975536z" fill="#0F6570" opacity=".247" p-id="10461"></path><path d="M610.16959 139.005282c2.662377 0 3.994564 1.332187 3.994563 3.994563-1.997282-0.665095-3.329469-1.997282-3.994563-3.994563z" fill="#061105" opacity=".02" p-id="10462"></path><path d="M618.158717 146.994409c2.662377 0 3.994564 1.332187 3.994564 3.994564-1.997282-0.665095-3.329469-1.997282-3.994564-3.994564z" fill="#081306" opacity=".016" p-id="10463"></path><path d="M320.563729 150.988973a13.070212 13.070212 0 0 1-5.991846 5.991845c0-3.994564 1.997282-5.991845 5.991846-5.991845z" fill="#064B5B" opacity=".263" p-id="10464"></path><path d="M312.574602 158.9781a13.070212 13.070212 0 0 1-5.991846 5.991845c0-3.994564 1.997282-5.991845 5.991846-5.991845z" fill="#064B5C" opacity=".259" p-id="10465"></path><path d="M632.13969 160.975382c2.662377 0 3.994564 1.332187 3.994563 3.994563-1.997282-0.665095-3.329469-1.997282-3.994563-3.994563z" fill="#061206" opacity=".016" p-id="10466"></path><path d="M304.585474 166.967227a13.070212 13.070212 0 0 1-5.991845 5.991845c0-3.994564 1.997282-5.991845 5.991845-5.991845z" fill="#095162" opacity=".255" p-id="10467"></path><path d="M640.128817 168.964509c2.662377 0 3.994564 1.332187 3.994563 3.994563-1.997282-0.665095-3.329469-1.997282-3.994563-3.994563z" fill="#071206" opacity=".02" p-id="10468"></path><path d="M296.596347 174.956354a13.070212 13.070212 0 0 1-5.991845 5.991846c0-3.994564 1.997282-5.991845 5.991845-5.991846z" fill="#0D5264" opacity=".243" p-id="10469"></path><path d="M648.117944 176.953636c2.662377 0 3.994564 1.332187 3.994564 3.994564-1.997282-0.665095-3.329469-1.997282-3.994564-3.994564z" fill="#081306" opacity=".016" p-id="10470"></path><path d="M290.604502 180.9482a13.070212 13.070212 0 0 1-5.991846 5.991845c0-3.994564 1.997282-5.991845 5.991846-5.991845z" fill="#064B5B" opacity=".259" p-id="10471"></path><path d="M282.615375 188.937327a13.070212 13.070212 0 0 1-5.991846 5.991845c0-3.994564 1.997282-5.991845 5.991846-5.991845z" fill="#064C5D" opacity=".259" p-id="10472"></path><path d="M662.098917 190.934609c2.662377 0 3.994564 1.332187 3.994563 3.994563-1.997282-0.665095-3.329469-1.997282-3.994563-3.994563z" fill="#061206" opacity=".016" p-id="10473"></path><path d="M274.626247 196.926454a13.074207 13.074207 0 0 1-5.991845 5.991845c0-3.994564 1.997282-5.991845 5.991845-5.991845z" fill="#0A5163" opacity=".251" p-id="10474"></path><path d="M670.088044 198.923736c2.662377 0 3.994564 1.332187 3.994563 3.994563-1.997282-0.665095-3.329469-1.997282-3.994563-3.994563z" fill="#071206" opacity=".02" p-id="10475"></path><path d="M751.976598 198.923736v1.997282c-3.119754 0.465367-5.782131 1.797554-7.989128 3.994563a11.438433 11.438433 0 0 1 1.997282-5.991845c1.997282-2.662377 3.994564-2.662377 5.991846 0z" fill="#1BA0A3" opacity=".655" p-id="10476"></path><path d="M751.976598 200.921018v-1.997282c2.662377 0 3.994564 1.332187 3.994563 3.994563l-3.994563-1.997281z" fill="#010F14" opacity=".004" p-id="10477"></path><path d="M751.976598 200.921018l3.994563 1.997281v3.994564c-2.808178-0.944714-4.140365-2.941996-3.994563-5.991845z" fill="#28B9A6" opacity=".827" p-id="10478"></path><path d="M755.971161 202.918299c3.676996 1.801548 6.339372 4.465922 7.989127 7.989128l-3.994563-1.997282-3.994564-1.997282v-3.994564z" fill="#0E4E5B" opacity=".404" p-id="10479"></path><path d="M266.63712 204.915581a13.076204 13.076204 0 0 1-5.991845 5.991846c0-3.994564 1.997282-5.991845 5.991845-5.991846z" fill="#0D5264" opacity=".243" p-id="10480"></path><path d="M678.077171 206.912863c2.662377 0 3.994564 1.332187 3.994564 3.994564-1.997282-0.665095-3.329469-1.997282-3.994564-3.994564z" fill="#091307" opacity=".012" p-id="10481"></path><path d="M759.965725 208.910145l3.994563 1.997282v3.994563c-2.808178-0.944714-4.140365-2.941996-3.994563-5.991845z" fill="#26BAA7" opacity=".82" p-id="10482"></path><path d="M260.645275 210.907427a13.076204 13.076204 0 0 1-5.991846 5.991845c0-3.994564 1.997282-5.991845 5.991846-5.991845z" fill="#054B5B" opacity=".259" p-id="10483"></path><path d="M684.069016 212.904708c2.662377 0 3.994564 1.332187 3.994564 3.994564-1.997282-0.665095-3.329469-1.997282-3.994564-3.994564z" fill="#071206" opacity=".008" p-id="10484"></path><path d="M763.960288 210.907427c5.42262 4.090433 10.082279 8.752089 13.980973 13.980972l-3.994564-1.997282-9.986409-7.989127v-3.994563z" fill="#0B5160" opacity=".4" p-id="10485"></path><path d="M745.984752 198.923736a11.438433 11.438433 0 0 0-1.997282 5.991845 408.300324 408.300324 0 0 0-33.95379 33.953791c-2.041222-0.709035-3.373409-2.041222-3.994564-3.994564a508.048571 508.048571 0 0 0 39.945636-35.951072z" fill="#0D626E" opacity=".439" p-id="10486"></path><path d="M692.058144 220.893836c2.662377 0 3.994564 1.332187 3.994563 3.994563-1.997282-0.665095-3.329469-1.997282-3.994563-3.994563z" fill="#061106" opacity=".02" p-id="10487"></path><path d="M773.946697 222.891117l3.994564 1.997282v3.994564c-2.808178-0.944714-4.140365-2.941996-3.994564-5.991846z" fill="#2CB7A4" opacity=".824" p-id="10488"></path><path d="M777.941261 224.888399c3.676996 1.801548 6.339372 4.465922 7.989127 7.989127l-3.994563-1.997281-3.994564-1.997282v-3.994564z" fill="#0E4C5A" opacity=".404" p-id="10489"></path><path d="M252.656148 218.896554c-2.662377 6.65694-7.324032 11.318596-13.980973 13.980972a4.8494 4.8494 0 0 1 0.998641-3.994563 262.628576 262.628576 0 0 1 12.982332-9.986409z" fill="#0E616F" opacity=".247" p-id="10490"></path><path d="M700.047271 228.882963c2.662377 0 3.994564 1.332187 3.994563 3.994563-1.997282-0.665095-3.329469-1.997282-3.994563-3.994563z" fill="#071206" opacity=".02" p-id="10491"></path><path d="M781.935825 230.880245l3.994563 1.997281v3.994564c-2.808178-0.944714-4.140365-2.941996-3.994563-5.991845z" fill="#28B9A6" opacity=".827" p-id="10492"></path><path d="M238.675175 232.877526c-1.997282 3.329469-4.659658 5.991845-7.989127 7.989128 0.665095-4.659658 3.329469-7.324032 7.989127-7.989128z" fill="#0B4959" opacity=".259" p-id="10493"></path><path d="M785.930388 232.877526c3.676996 1.801548 6.339372 4.465922 7.989127 7.989128l-3.994563-1.997282-3.994564-1.997282v-3.994564z" fill="#0E4E5C" opacity=".404" p-id="10494"></path><path d="M789.924952 238.869372l3.994563 1.997282v3.994563c-2.808178-0.944714-4.140365-2.941996-3.994563-5.991845z" fill="#26B9A7" opacity=".824" p-id="10495"></path><path d="M793.919515 240.866654c5.42262 4.090433 10.082279 8.752089 13.980973 13.980972l-3.994564-1.997282-9.986409-7.989127v-3.994563z" fill="#0B5161" opacity=".4" p-id="10496"></path><path d="M230.686048 240.866654a63.609431 63.609431 0 0 1-13.980973 16.976895 33.114932 33.114932 0 0 0-7.989127 4.993204 4.8494 4.8494 0 0 1 0.998641-3.994563 150.844708 150.844708 0 0 1 20.971459-17.975536z" fill="#0F6570" opacity=".251" p-id="10497"></path><path d="M803.905924 252.850344l3.994564 1.997282v3.994564c-2.808178-0.944714-4.140365-2.941996-3.994564-5.991846z" fill="#2BB8A4" opacity=".827" p-id="10498"></path><path d="M807.900488 254.847626c3.676996 1.801548 6.339372 4.465922 7.989127 7.989127l-3.994563-1.997281-3.994564-1.997282v-3.994564z" fill="#0E4D5A" opacity=".404" p-id="10499"></path><path d="M811.895052 260.839472l3.994563 1.997281v3.994564c-2.808178-0.944714-4.140365-2.941996-3.994563-5.991845z" fill="#28B9A6" opacity=".827" p-id="10500"></path><path d="M208.715948 262.836753c-1.997282 3.329469-4.659658 5.991845-7.989127 7.989128 0.665095-4.659658 3.329469-7.324032 7.989127-7.989128z" fill="#0A4959" opacity=".263" p-id="10501"></path><path d="M815.889615 262.836753a171.147077 171.147077 0 0 1 21.9701 21.9701l-3.994564-1.997282-17.975536-15.978254v-3.994564z" fill="#0A5464" opacity=".404" p-id="10502"></path><path d="M200.726821 270.825881v7.989127c-2.169048-0.239674-3.501235-1.571861-3.994564-3.994564 0.493329-2.422703 1.825516-3.75489 3.994564-3.994563z" fill="#045B67" opacity=".161" p-id="10503"></path><path d="M200.726821 278.815008c13.980973 9.986409 25.964663 21.9701 35.951072 35.951072a143.822265 143.822265 0 0 0-9.986409-6.990486c-8.814005-9.680825-17.468227-19.333688-25.964663-28.960586z" fill="#0F717C" opacity=".18" p-id="10504"></path><path d="M833.865151 282.809571l3.994564 1.997282v3.994564c-2.808178-0.944714-4.140365-2.941996-3.994564-5.991846z" fill="#2AB8A5" opacity=".831" p-id="10505"></path><path d="M837.859715 284.806853c3.676996 1.801548 6.339372 4.465922 7.989127 7.989127l-3.994563-1.997281-3.994564-1.997282v-3.994564z" fill="#0E4D5A" opacity=".408" p-id="10506"></path><path d="M841.854279 290.798699l3.994563 1.997281v3.994564c-2.808178-0.944714-4.140365-2.941996-3.994563-5.991845z" fill="#28BAA6" opacity=".827" p-id="10507"></path><path d="M236.677893 314.76608c1.943355 3.579129 0.611168 6.241506-3.994563 7.989127 0.465367-3.119754 1.797554-5.782131 3.994563-7.989127z" fill="#182B17" opacity=".31" p-id="10508"></path><path d="M230.686048 324.752489c-0.665095 1.997282-1.997282 3.329469-3.994564 3.994564 0-2.662377 1.332187-3.994564 3.994564-3.994564z" fill="#162D14" opacity=".294" p-id="10509"></path><path d="M400.455001 322.755207a9188.10545 9188.10545 0 0 0 315.570524 179.755362l9.986409 9.986409a3310.580466 3310.580466 0 0 1-97.866808 58.919814 18024.948949 18024.948949 0 0 0-227.690125 128.824676c-2.662377-125.828753-2.662377-251.657507 0-377.486261z" fill="#FDFEFE" p-id="10510"></path><path d="M400.455001 322.755207c-2.662377 125.828753-2.662377 251.657507 0 377.486261-0.119837 1.084524-0.784932 1.749619-1.997282 1.997281a9111.130209 9111.130209 0 0 1 0-381.480823c1.21235 0.247663 1.877445 0.912758 1.997282 1.997281z" fill="#BEE3BD" p-id="10511"></path><path d="M216.705075 338.733462a13.076204 13.076204 0 0 1-5.991845 5.991845c0-3.994564 1.997282-5.991845 5.991845-5.991845z" fill="#162B14" opacity=".298" p-id="10512"></path><path d="M845.848842 292.79598a1932.807546 1932.807546 0 0 1 73.899427 73.899427l-3.994564-1.997282-69.904863-67.907581v-3.994564z" fill="#166D74" opacity=".396" p-id="10513"></path><path d="M208.715948 346.722589a13.076204 13.076204 0 0 1-5.991845 5.991845c0-3.994564 1.997282-5.991845 5.991845-5.991845z" fill="#162B14" opacity=".314" p-id="10514"></path><path d="M200.726821 354.711716c-0.665095 1.997282-1.997282 3.329469-3.994564 3.994564 0-2.662377 1.332187-3.994564 3.994564-3.994564z" fill="#162D14" opacity=".29" p-id="10515"></path><path d="M915.753705 364.698125l3.994564 1.997282v3.994564c-2.808178-0.944714-4.140365-2.941996-3.994564-5.991846z" fill="#2CB7A4" opacity=".824" p-id="10516"></path><path d="M919.748269 366.695407c3.676996 1.801548 6.339372 4.465922 7.989127 7.989127l-3.994564-1.997282-3.994563-1.997281v-3.994564z" fill="#0E4C59" opacity=".408" p-id="10517"></path><path d="M186.745848 368.692689a13.070212 13.070212 0 0 1-5.991845 5.991845c0-3.994564 1.997282-5.991845 5.991845-5.991845z" fill="#162B14" opacity=".298" p-id="10518"></path><path d="M923.742832 372.687252l3.994564 1.997282v3.994564c-2.808178-0.944714-4.140365-2.941996-3.994564-5.991846z" fill="#28B9A6" opacity=".831" p-id="10519"></path><path d="M178.756721 376.681816a13.070212 13.070212 0 0 1-5.991845 5.991845c0-3.994564 1.997282-5.991845 5.991845-5.991845z" fill="#172C14" opacity=".318" p-id="10520"></path><path d="M170.767594 384.670943c-0.665095 1.997282-1.997282 3.329469-3.994564 3.994564 0-2.662377 1.332187-3.994564 3.994564-3.994564z" fill="#172E15" opacity=".298" p-id="10521"></path><path d="M927.737396 374.684534c6.023802 3.481262 10.68346 8.142918 13.980973 13.980973-5.792117-1.883437-10.451776-5.212905-13.980973-9.986409v-3.994564z" fill="#265C49" opacity=".776" p-id="10522"></path><path d="M164.775748 390.662789a13.070212 13.070212 0 0 1-5.991845 5.991845c0-3.994564 1.997282-5.991845 5.991845-5.991845z" fill="#162B14" opacity=".298" p-id="10523"></path><path d="M945.712932 392.66007c2.662377 0 3.994564 1.332187 3.994564 3.994564-1.997282-0.665095-3.329469-1.997282-3.994564-3.994564z" fill="#050F05" opacity=".016" p-id="10524"></path><path d="M156.786621 398.651916a13.070212 13.070212 0 0 1-5.991845 5.991845c0-3.994564 1.997282-5.991845 5.991845-5.991845z" fill="#162B14" opacity=".31" p-id="10525"></path><path d="M953.702059 400.649198c2.662377 0 3.994564 1.332187 3.994564 3.994563-1.997282-0.665095-3.329469-1.997282-3.994564-3.994563z" fill="#050F05" opacity=".016" p-id="10526"></path><path d="M148.797494 406.641043a13.070212 13.070212 0 0 1-5.991845 5.991845c0-3.994564 1.997282-5.991845 5.991845-5.991845z" fill="#182F15" opacity=".329" p-id="10527"></path><path d="M961.691187 408.638325c2.662377 0 3.994564 1.332187 3.994563 3.994563-1.997282-0.665095-3.329469-1.997282-3.994563-3.994563z" fill="#071006" opacity=".004" p-id="10528"></path><path d="M140.808367 414.63017c-0.665095 1.997282-1.997282 3.329469-3.994564 3.994564 0-2.662377 1.332187-3.994564 3.994564-3.994564z" fill="#162D15" opacity=".286" p-id="10529"></path><path d="M967.683032 414.63017c2.662377 0 3.994564 1.332187 3.994564 3.994564-1.997282-0.665095-3.329469-1.997282-3.994564-3.994564z" fill="#061005" opacity=".008" p-id="10530"></path><path d="M134.816521 420.622016a13.070212 13.070212 0 0 1-5.991845 5.991845c0-3.994564 1.997282-5.991845 5.991845-5.991845z" fill="#162B14" opacity=".29" p-id="10531"></path><path d="M975.672159 422.619297c2.662377 0 3.994564 1.332187 3.994564 3.994564-1.997282-0.665095-3.329469-1.997282-3.994564-3.994564z" fill="#060E05" opacity=".016" p-id="10532"></path><path d="M126.827394 428.611143a13.070212 13.070212 0 0 1-5.991845 5.991845c0-3.994564 1.997282-5.991845 5.991845-5.991845z" fill="#162B14" opacity=".306" p-id="10533"></path><path d="M983.661286 430.608425c2.662377 0 3.994564 1.332187 3.994564 3.994563-1.997282-0.665095-3.329469-1.997282-3.994564-3.994563z" fill="#061005" opacity=".016" p-id="10534"></path><path d="M118.838267 436.60027c-0.665095 1.997282-1.997282 3.329469-3.994564 3.994564 0-2.662377 1.332187-3.994564 3.994564-3.994564z" fill="#162D14" opacity=".298" p-id="10535"></path><path d="M997.642259 444.589397c2.662377 0 3.994564 1.332187 3.994564 3.994564-1.997282-0.665095-3.329469-1.997282-3.994564-3.994564z" fill="#030A03" opacity=".063" p-id="10536"></path><path d="M104.857294 450.581243a13.070212 13.070212 0 0 1-5.991845 5.991845c0-3.994564 1.997282-5.991845 5.991845-5.991845z" fill="#162B14" opacity=".294" p-id="10537"></path><path d="M1005.631386 452.578524c2.662377 0 3.994564 1.332187 3.994564 3.994564-1.997282-0.665095-3.329469-1.997282-3.994564-3.994564z" fill="#010601" opacity=".061" p-id="10538"></path><path d="M96.868167 458.57037a13.070212 13.070212 0 0 1-5.991845 5.991845c0-3.994564 1.997282-5.991845 5.991845-5.991845z" fill="#162B14" opacity=".31" p-id="10539"></path><path d="M1013.620513 460.567652c2.662377 0 3.994564 1.332187 3.994564 3.994563-1.997282-0.665095-3.329469-1.997282-3.994564-3.994563z" fill="#060F05" opacity=".012" p-id="10540"></path><path d="M88.87904 466.559497c-0.665095 1.997282-1.997282 3.329469-3.994564 3.994564 0-2.662377 1.332187-3.994564 3.994564-3.994564z" fill="#162D14" opacity=".294" p-id="10541"></path><path d="M1019.612359 476.545906c-0.944714 2.808178-2.941996 4.140365-5.991846 3.994564 0.944714-2.808178 2.941996-4.140365 5.991846-3.994564z" fill="#132211" opacity=".063" p-id="10542"></path><path d="M74.898067 480.54047a13.070212 13.070212 0 0 1-5.991845 5.991845c0-3.994564 1.997282-5.991845 5.991845-5.991845z" fill="#162B14" opacity=".298" p-id="10543"></path><path d="M1011.623232 482.537751c0 3.994564-1.997282 5.991845-5.991846 5.991846a13.076204 13.076204 0 0 1 5.991846-5.991846z" fill="#0F1C0B" opacity=".039" p-id="10544"></path><path d="M66.90894 488.529597a13.070212 13.070212 0 0 1-5.991845 5.991845c0-3.994564 1.997282-5.991845 5.991845-5.991845z" fill="#162C14" opacity=".314" p-id="10545"></path><path d="M1003.634104 490.526879c0 3.994564-1.997282 5.991845-5.991845 5.991845a13.076204 13.076204 0 0 1 5.991845-5.991845z" fill="#354332" opacity=".004" p-id="10546"></path><path d="M58.919813 496.518724c-0.665095 1.997282-1.997282 3.329469-3.994564 3.994564 0-2.662377 1.332187-3.994564 3.994564-3.994564z" fill="#162E15" opacity=".298" p-id="10547"></path><path d="M997.642259 498.516006c-0.944714 2.808178-2.941996 4.140365-5.991845 3.994563 0.944714-2.808178 2.941996-4.140365 5.991845-3.994563z" fill="#142311" opacity=".075" p-id="10548"></path><path d="M989.653132 506.505133c-0.944714 2.808178-2.941996 4.140365-5.991846 3.994564 0.944714-2.808178 2.941996-4.140365 5.991846-3.994564z" fill="#142211" opacity=".063" p-id="10549"></path><path d="M44.93884 510.499697a13.070212 13.070212 0 0 1-5.991845 5.991845c0-3.994564 1.997282-5.991845 5.991845-5.991845z" fill="#162B14" opacity=".306" p-id="10550"></path><path d="M981.664005 512.496978c0 3.994564-1.997282 5.991845-5.991846 5.991846a13.076204 13.076204 0 0 1 5.991846-5.991846z" fill="#142312" opacity=".035" p-id="10551"></path><path d="M36.949713 518.488824a13.070212 13.070212 0 0 1-5.991845 5.991845c0-3.994564 1.997282-5.991845 5.991845-5.991845z" fill="#172F15" opacity=".325" p-id="10552"></path><path d="M973.674877 520.486106c0 2.662377-1.332187 3.994564-3.994563 3.994563 0.665095-1.997282 1.997282-3.329469 3.994563-3.994563z" fill="#162914" opacity=".078" p-id="10553"></path><path d="M28.960586 526.477951c-0.665095 1.997282-1.997282 3.329469-3.994564 3.994564 0-2.662377 1.332187-3.994564 3.994564-3.994564z" fill="#162E14" opacity=".29" p-id="10554"></path><path d="M967.683032 528.475233c-0.944714 2.808178-2.941996 4.140365-5.991845 3.994563 0.944714-2.808178 2.941996-4.140365 5.991845-3.994563z" fill="#142211" opacity=".075" p-id="10555"></path><path d="M22.968741 532.469796a13.070212 13.070212 0 0 1-5.991846 5.991846c0-3.994564 1.997282-5.991845 5.991846-5.991846z" fill="#162B14" opacity=".29" p-id="10556"></path><path d="M959.693905 536.46436c-0.944714 2.808178-2.941996 4.140365-5.991846 3.994564 0.944714-2.808178 2.941996-4.140365 5.991846-3.994564z" fill="#121F10" opacity=".055" p-id="10557"></path><path d="M14.979613 540.458924a13.070212 13.070212 0 0 1-5.991845 5.991845c0-3.994564 1.997282-5.991845 5.991845-5.991845z" fill="#162B14" opacity=".302" p-id="10558"></path><path d="M951.704778 542.456205c0 3.994564-1.997282 5.991845-5.991846 5.991846a13.076204 13.076204 0 0 1 5.991846-5.991846z" fill="#142312" opacity=".027" p-id="10559"></path><path d="M943.71565 550.445333c0 2.662377-1.332187 3.994564-3.994563 3.994563 0.665095-1.997282 1.997282-3.329469 3.994563-3.994563z" fill="#162914" opacity=".075" p-id="10560"></path><path d="M6.990486 558.43446c3.802825 0.475353 6.467198 2.472635 7.989127 5.991845-3.802825-0.475353-6.467198-2.472635-7.989127-5.991845z" fill="#203F1D" opacity=".573" p-id="10561"></path><path d="M937.723805 558.43446c-0.944714 2.808178-2.941996 4.140365-5.991845 3.994563 0.944714-2.808178 2.941996-4.140365 5.991845-3.994563z" fill="#132211" opacity=".071" p-id="10562"></path><path d="M14.979613 566.423587c3.994564 0 5.991845 1.997282 5.991846 5.991845a13.070212 13.070212 0 0 1-5.991846-5.991845z" fill="#1C371A" opacity=".545" p-id="10563"></path><path d="M929.734678 564.426305c0 3.994564-1.997282 5.991845-5.991846 5.991846a13.076204 13.076204 0 0 1 5.991846-5.991846z" fill="#142312" opacity=".051" p-id="10564"></path><path d="M22.968741 574.412714c3.049849-0.145802 5.047131 1.186385 5.991845 3.994564-3.049849 0.145802-5.047131-1.186385-5.991845-3.994564z" fill="#20411D" opacity=".518" p-id="10565"></path><path d="M921.745551 572.415432c0 3.994564-1.997282 5.991845-5.991846 5.991846a13.076204 13.076204 0 0 1 5.991846-5.991846z" fill="#142212" opacity=".02" p-id="10566"></path><path d="M30.957868 582.401841c3.049849-0.145802 5.047131 1.186385 5.991845 3.994564-3.049849 0.145802-5.047131-1.186385-5.991845-3.994564z" fill="#20401D" opacity=".502" p-id="10567"></path><path d="M913.756423 580.40456c0 2.662377-1.332187 3.994564-3.994563 3.994563 0.665095-1.997282 1.997282-3.329469 3.994563-3.994563z" fill="#162914" opacity=".075" p-id="10568"></path><path d="M36.949713 588.393687c3.802825 0.475353 6.467198 2.472635 7.989127 5.991845-3.802825-0.475353-6.467198-2.472635-7.989127-5.991845z" fill="#203F1D" opacity=".569" p-id="10569"></path><path d="M907.764578 588.393687c-0.944714 2.808178-2.941996 4.140365-5.991845 3.994563 0.944714-2.808178 2.941996-4.140365 5.991845-3.994563z" fill="#142211" opacity=".067" p-id="10570"></path><path d="M44.93884 596.382814c3.994564 0 5.991845 1.997282 5.991846 5.991845a13.070212 13.070212 0 0 1-5.991846-5.991845z" fill="#1C371A" opacity=".541" p-id="10571"></path><path d="M899.775451 594.385532c0 3.994564-1.997282 5.991845-5.991846 5.991846a13.076204 13.076204 0 0 1 5.991846-5.991846z" fill="#142312" opacity=".043" p-id="10572"></path><path d="M52.927968 604.371941c3.049849-0.145802 5.047131 1.186385 5.991845 3.994564-3.049849 0.145802-5.047131-1.186385-5.991845-3.994564z" fill="#20401D" opacity=".518" p-id="10573"></path><path d="M891.786324 602.374659c0 3.994564-1.997282 5.991845-5.991846 5.991846a13.076204 13.076204 0 0 1 5.991846-5.991846z" fill="#142312" opacity=".012" p-id="10574"></path><path d="M58.919813 610.363787c3.802825 0.475353 6.467198 2.472635 7.989127 5.991845-3.802825-0.475353-6.467198-2.472635-7.989127-5.991845z" fill="#203F1D" opacity=".592" p-id="10575"></path><path d="M885.794478 610.363787c-0.944714 2.808178-2.941996 4.140365-5.991845 3.994563 0.944714-2.808178 2.941996-4.140365 5.991845-3.994563z" fill="#142212" opacity=".078" p-id="10576"></path><path d="M877.805351 618.352914c-0.944714 2.808178-2.941996 4.140365-5.991845 3.994563 0.944714-2.808178 2.941996-4.140365 5.991845-3.994563z" fill="#142211" opacity=".067" p-id="10577"></path><path d="M869.816224 624.344759c0 3.994564-1.997282 5.991845-5.991846 5.991846a13.076204 13.076204 0 0 1 5.991846-5.991846z" fill="#142312" opacity=".043" p-id="10578"></path><path d="M66.90894 618.352914a9.854588 9.854588 0 0 1 5.991846 0.998641c9.191491 8.176872 17.180618 17.16464 23.967381 26.963304a6794.612873 6794.612873 0 0 1-29.959227-27.961945z" fill="#12757E" opacity=".255" p-id="10579"></path><path d="M861.827097 632.333886c0 3.994564-1.997282 5.991845-5.991846 5.991846a13.076204 13.076204 0 0 1 5.991846-5.991846z" fill="#142312" opacity=".008" p-id="10580"></path><path d="M855.835251 640.323014c-0.944714 2.808178-2.941996 4.140365-5.991845 3.994563 0.944714-2.808178 2.941996-4.140365 5.991845-3.994563z" fill="#142211" opacity=".075" p-id="10581"></path><path d="M847.846124 648.312141c-0.944714 2.808178-2.941996 4.140365-5.991845 3.994563 0.944714-2.808178 2.941996-4.140365 5.991845-3.994563z" fill="#142211" opacity=".063" p-id="10582"></path><path d="M839.856997 654.303986c0 3.994564-1.997282 5.991845-5.991846 5.991846a13.076204 13.076204 0 0 1 5.991846-5.991846z" fill="#142312" opacity=".035" p-id="10583"></path><path d="M831.86787 662.293113c0 2.662377-1.332187 3.994564-3.994564 3.994564 0.665095-1.997282 1.997282-3.329469 3.994564-3.994564z" fill="#162914" opacity=".075" p-id="10584"></path><path d="M825.876024 670.282241c-0.944714 2.808178-2.941996 4.140365-5.991845 3.994563 0.944714-2.808178 2.941996-4.140365 5.991845-3.994563z" fill="#142211" opacity=".071" p-id="10585"></path><path d="M817.886897 678.271368c-0.944714 2.808178-2.941996 4.140365-5.991845 3.994563 0.944714-2.808178 2.941996-4.140365 5.991845-3.994563z" fill="#132211" opacity=".055" p-id="10586"></path><path d="M809.89777 684.263213c0 3.994564-1.997282 5.991845-5.991846 5.991846a13.076204 13.076204 0 0 1 5.991846-5.991846z" fill="#142212" opacity=".027" p-id="10587"></path><path d="M801.908643 692.25234c0 2.662377-1.332187 3.994564-3.994564 3.994564 0.665095-1.997282 1.997282-3.329469 3.994564-3.994564z" fill="#162914" opacity=".075" p-id="10588"></path><path d="M795.916797 700.241468c-0.944714 2.808178-2.941996 4.140365-5.991845 3.994563 0.944714-2.808178 2.941996-4.140365 5.991845-3.994563z" fill="#132211" opacity=".071" p-id="10589"></path><path d="M787.92767 706.233313c4.759523 2.766235 8.088991 6.760799 9.986409 11.983691-4.425976-1.404089-8.086994-4.066466-10.98505-7.989127-1.382119-1.871453-1.048573-3.201643 0.998641-3.994564z" fill="#1C8A8B" opacity=".306" p-id="10590"></path><path d="M797.914079 718.217004c3.994564 0 5.991845 1.997282 5.991845 5.991845 0-3.994564-1.997282-5.991845-5.991845-5.991845z" fill="#0F7D85" opacity=".322" p-id="10591"></path><path d="M803.905924 724.208849c4.659658 0.665095 7.324032 3.329469 7.989128 7.989127-0.665095-4.659658-3.329469-7.324032-7.989128-7.989127z" fill="#12727A" opacity=".325" p-id="10592"></path><path d="M96.868167 646.314859a4.851397 4.851397 0 0 1 3.994564 0.998641 2811.074269 2811.074269 0 0 1 107.853217 110.84914 4.8494 4.8494 0 0 1-3.994564-0.998641A12781.175462 12781.175462 0 0 0 97.866808 650.309423a4.847403 4.847403 0 0 1-0.998641-3.994564z" fill="#127F86" opacity=".267" p-id="10593"></path><path d="M811.895052 732.197976c4.659658 0.665095 7.324032 3.329469 7.989127 7.989128-0.665095-4.659658-3.329469-7.324032-7.989127-7.989128z" fill="#11727B" opacity=".325" p-id="10594"></path><path d="M819.884179 740.187104c1.989293-0.171766 3.653028 0.495326 4.993204 1.997281 1.527921 3.127743 1.194375 5.79012-0.998641 7.989128a26.418046 26.418046 0 0 0-3.994563-9.986409z" fill="#096A76" opacity=".337" p-id="10595"></path><path d="M208.715948 758.16264c11.983691 7.989127 21.9701 17.975536 29.959227 29.959227a4.8494 4.8494 0 0 1-3.994564-0.998641 1266.752014 1266.752014 0 0 1-25.964663-28.960586z" fill="#12767F" opacity=".255" p-id="10596"></path><path d="M823.878742 750.173513a7522.689997 7522.689997 0 0 1-145.801571 145.801571 4828.752311 4828.752311 0 0 1 141.807008-144.802931 4.8494 4.8494 0 0 1 3.994563-0.99864z" fill="#084757" opacity=".067" p-id="10597"></path><path d="M320.563729 790.119149c3.994564 0 5.991845 1.997282 5.991845 5.991845a13.076204 13.076204 0 0 1-5.991845-5.991845z" fill="#1D3A1B" opacity=".584" p-id="10598"></path><path d="M238.675175 788.121867c12.800579 9.792673 24.78427 20.777723 35.951072 32.955149a9.854588 9.854588 0 0 0 5.991846 0.998641v1.997282c-3.173681 2.238953-6.50315 1.905407-9.986409-0.998641a1937.3234 1937.3234 0 0 1-31.956509-34.952431z" fill="#127E86" opacity=".263" p-id="10599"></path><path d="M328.552856 798.108276c3.994564 0 5.991845 1.997282 5.991845 5.991845a13.076204 13.076204 0 0 1-5.991845-5.991845z" fill="#1D391B" opacity=".557" p-id="10600"></path><path d="M318.566447 788.121867a484.173065 484.173065 0 0 1-37.948354 35.951072v-1.997282a835.405056 835.405056 0 0 1 33.95379-34.952431c1.871453-1.382119 3.201643-1.048573 3.994564 0.998641z" fill="#0A5364" opacity=".094" p-id="10601"></path><path d="M336.541983 806.097403c3.049849-0.145802 5.047131 1.186385 5.991846 3.994564-3.049849 0.145802-5.047131-1.186385-5.991846-3.994564z" fill="#21441E" opacity=".533" p-id="10602"></path><path d="M342.533829 812.089248c3.802825 0.475353 6.467198 2.472635 7.989127 5.991846-3.802825-0.475353-6.467198-2.472635-7.989127-5.991846z" fill="#21421E" opacity=".616" p-id="10603"></path><path d="M350.522956 820.078376c3.994564 0 5.991845 1.997282 5.991845 5.991845a13.076204 13.076204 0 0 1-5.991845-5.991845z" fill="#1E3B1B" opacity=".588" p-id="10604"></path><path d="M358.512083 828.067503c3.994564 0 5.991845 1.997282 5.991845 5.991845a13.076204 13.076204 0 0 1-5.991845-5.991845z" fill="#1D3A1B" opacity=".561" p-id="10605"></path><path d="M366.50121 836.05663c3.049849-0.145802 5.047131 1.186385 5.991846 3.994564-3.049849 0.145802-5.047131-1.186385-5.991846-3.994564z" fill="#21451E" opacity=".537" p-id="10606"></path><path d="M372.493056 842.048475c3.802825 0.475353 6.467198 2.472635 7.989127 5.991846-3.802825-0.475353-6.467198-2.472635-7.989127-5.991846z" fill="#21431E" opacity=".608" p-id="10607"></path><path d="M380.482183 850.037603c3.994564 0 5.991845 1.997282 5.991845 5.991845a13.076204 13.076204 0 0 1-5.991845-5.991845z" fill="#1E3B1B" opacity=".58" p-id="10608"></path><path d="M388.47131 858.02673c3.994564 0 5.991845 1.997282 5.991845 5.991845a13.076204 13.076204 0 0 1-5.991845-5.991845z" fill="#1D3A1B" opacity=".553" p-id="10609"></path><path d="M396.460437 866.015857c3.049849-0.145802 5.047131 1.186385 5.991846 3.994564-3.049849 0.145802-5.047131-1.186385-5.991846-3.994564z" fill="#21451E" opacity=".529" p-id="10610"></path><path d="M402.452283 872.007702c3.802825 0.475353 6.467198 2.472635 7.989127 5.991846-3.802825-0.475353-6.467198-2.472635-7.989127-5.991846z" fill="#21421E" opacity=".596" p-id="10611"></path><path d="M410.44141 879.99683c3.994564 0 5.991845 1.997282 5.991845 5.991845a13.076204 13.076204 0 0 1-5.991845-5.991845z" fill="#1E3A1B" opacity=".569" p-id="10612"></path><path d="M418.430537 887.985957c3.049849-0.145802 5.047131 1.186385 5.991845 3.994563-3.049849 0.145802-5.047131-1.186385-5.991845-3.994563z" fill="#21441F" opacity=".541" p-id="10613"></path><path d="M424.422382 893.977802c3.802825 0.475353 6.467198 2.472635 7.989128 5.991846-3.802825-0.475353-6.467198-2.472635-7.989128-5.991846z" fill="#21421E" opacity=".62" p-id="10614"></path><path d="M432.41151 901.966929c3.802825 0.475353 6.467198 2.472635 7.989127 5.991846-3.802825-0.475353-6.467198-2.472635-7.989127-5.991846z" fill="#21421E" opacity=".588" p-id="10615"></path><path d="M674.082607 899.969648c0 2.662377-1.332187 3.994564-3.994563 3.994563 0.665095-1.997282 1.997282-3.329469 3.994563-3.994563z" fill="#050F05" opacity=".016" p-id="10616"></path><path d="M440.400637 909.956057c3.994564 0 5.991845 1.997282 5.991845 5.991845a13.076204 13.076204 0 0 1-5.991845-5.991845z" fill="#1D3A1B" opacity=".561" p-id="10617"></path><path d="M666.09348 907.958775c0 2.662377-1.332187 3.994564-3.994563 3.994563 0.665095-1.997282 1.997282-3.329469 3.994563-3.994563z" fill="#050E05" opacity=".016" p-id="10618"></path><path d="M448.389764 917.945184c3.049849-0.145802 5.047131 1.186385 5.991845 3.994563-3.049849 0.145802-5.047131-1.186385-5.991845-3.994563z" fill="#21441E" opacity=".537" p-id="10619"></path><path d="M658.104353 915.947902c0 2.662377-1.332187 3.994564-3.994564 3.994564 0.665095-1.997282 1.997282-3.329469 3.994564-3.994564z" fill="#061005" opacity=".004" p-id="10620"></path><path d="M454.381609 923.937029c3.802825 0.475353 6.467198 2.472635 7.989128 5.991846-3.802825-0.475353-6.467198-2.472635-7.989128-5.991846z" fill="#21421E" opacity=".62" p-id="10621"></path><path d="M652.112508 921.939747c0 2.662377-1.332187 3.994564-3.994564 3.994564 0.665095-1.997282 1.997282-3.329469 3.994564-3.994564z" fill="#071105" opacity=".008" p-id="10622"></path><path d="M462.370737 931.926156c3.802825 0.475353 6.467198 2.472635 7.989127 5.991846-3.802825-0.475353-6.467198-2.472635-7.989127-5.991846z" fill="#21421E" opacity=".592" p-id="10623"></path><path d="M644.12338 929.928875c0 2.662377-1.332187 3.994564-3.994563 3.994563 0.665095-1.997282 1.997282-3.329469 3.994563-3.994563z" fill="#050F05" opacity=".016" p-id="10624"></path><path d="M470.359864 939.915284c3.994564 0 5.991845 1.997282 5.991845 5.991845a13.076204 13.076204 0 0 1-5.991845-5.991845z" fill="#1D3A1B" opacity=".565" p-id="10625"></path><path d="M636.134253 937.918002c0 2.662377-1.332187 3.994564-3.994563 3.994563 0.665095-1.997282 1.997282-3.329469 3.994563-3.994563z" fill="#060F05" opacity=".016" p-id="10626"></path><path d="M478.348991 947.904411c3.049849-0.145802 5.047131 1.186385 5.991845 3.994563-3.049849 0.145802-5.047131-1.186385-5.991845-3.994563z" fill="#21451F" opacity=".541" p-id="10627"></path><path d="M484.340836 953.896256c3.802825 0.475353 6.467198 2.472635 7.989128 5.991846-3.802825-0.475353-6.467198-2.472635-7.989128-5.991846z" fill="#21431E" opacity=".616" p-id="10628"></path><path d="M622.153281 951.898974c0 2.662377-1.332187 3.994564-3.994564 3.994564 0.665095-1.997282 1.997282-3.329469 3.994564-3.994564z" fill="#071105" opacity=".008" p-id="10629"></path><path d="M492.329964 961.885383c3.994564 0 5.991845 1.997282 5.991845 5.991846a13.076204 13.076204 0 0 1-5.991845-5.991846z" fill="#1E3B1B" opacity=".588" p-id="10630"></path><path d="M614.164153 959.888102c0 2.662377-1.332187 3.994564-3.994563 3.994563 0.665095-1.997282 1.997282-3.329469 3.994563-3.994563z" fill="#050F05" opacity=".016" p-id="10631"></path><path d="M500.319091 969.874511c3.994564 0 5.991845 1.997282 5.991845 5.991845a13.076204 13.076204 0 0 1-5.991845-5.991845z" fill="#1D3A1B" opacity=".561" p-id="10632"></path><path d="M606.175026 967.877229c0 2.662377-1.332187 3.994564-3.994563 3.994563 0.665095-1.997282 1.997282-3.329469 3.994563-3.994563z" fill="#060F05" opacity=".012" p-id="10633"></path><path d="M508.308218 977.863638c3.049849-0.145802 5.047131 1.186385 5.991845 3.994563-3.049849 0.145802-5.047131-1.186385-5.991845-3.994563z" fill="#21451E" opacity=".537" p-id="10634"></path><path d="M514.300063 983.855483c3.802825 0.475353 6.467198 2.472635 7.989128 5.991846-3.802825-0.475353-6.467198-2.472635-7.989128-5.991846z" fill="#21421E" opacity=".604" p-id="10635"></path><path d="M592.194054 981.858201c0 2.662377-1.332187 3.994564-3.994564 3.994564 0.665095-1.997282 1.997282-3.329469 3.994564-3.994564z" fill="#061005" opacity=".012" p-id="10636"></path><path d="M522.289191 991.84461c3.994564 0 5.991845 1.997282 5.991845 5.991846a13.076204 13.076204 0 0 1-5.991845-5.991846z" fill="#274023" opacity=".573" p-id="10637"></path><path d="M584.204926 989.847329c0 2.662377-1.332187 3.994564-3.994563 3.994563 0.665095-1.997282 1.997282-3.329469 3.994563-3.994563z" fill="#050E04" opacity=".016" p-id="10638"></path><path d="M530.278318 999.833738c3.994564 0 5.991845 1.997282 5.991845 5.991845a13.076204 13.076204 0 0 1-5.991845-5.991845z" fill="#20391B" opacity=".545" p-id="10639"></path><path d="M576.215799 997.836456c0 2.662377-1.332187 3.994564-3.994563 3.994563 0.665095-1.997282 1.997282-3.329469 3.994563-3.994563z" fill="#A5AAA5" opacity=".012" p-id="10640"></path><path d="M538.267445 1007.822865c3.049849-0.145802 5.047131 1.186385 5.991845 3.994563-3.049849 0.145802-5.047131-1.186385-5.991845-3.994563z" fill="#21441E" opacity=".525" p-id="10641"></path><path d="M544.25929 1013.81471c3.994564 0 5.991845 1.997282 5.991846 5.991846a13.076204 13.076204 0 0 1-5.991846-5.991846z" fill="#294325" opacity=".596" p-id="10642"></path><path d="M562.234827 1011.817428c0 2.662377-1.332187 3.994564-3.994564 3.994564 0.665095-1.997282 1.997282-3.329469 3.994564-3.994564z" fill="#060F05" opacity=".012" p-id="10643"></path></svg>