<?xml version="1.0" standalone="no"?><!DOCTYPE svg PUBLIC "-//W3C//DTD SVG 1.1//EN" "http://www.w3.org/Graphics/SVG/1.1/DTD/svg11.dtd"><svg t="1725798921164" class="icon" viewBox="0 0 1024 1024" version="1.1" xmlns="http://www.w3.org/2000/svg" p-id="28168" xmlns:xlink="http://www.w3.org/1999/xlink" width="200" height="200"><path d="M933.2 381.8H876V251c0-15.1-12.3-27.4-27.3-27.4H496.6v-46c0-15.1-12.3-27.4-27.4-27.4H199.1c-15.1 0-27.3 12.2-27.3 27.4v204.2H90.7c-15.1 0-27.3 12.2-27.3 27.4l105.1 430.1c0 15.1 10.6 34.6 25.7 34.6H848c15.1 0 31.2-33.1 31.2-48.2l81.4-416.4c0-15.3-12.3-27.5-27.4-27.5z" fill="#F0D97C" p-id="28169"></path><path d="M144 333.5l7.4 48.3h747.1v-48.3zM213.6 269.2h620.6v37.3H213.6z" fill="#FDEEE2" p-id="28170"></path></svg>