<?xml version="1.0" standalone="no"?><!DOCTYPE svg PUBLIC "-//W3C//DTD SVG 1.1//EN" "http://www.w3.org/Graphics/SVG/1.1/DTD/svg11.dtd"><svg t="1725798776774" class="icon" viewBox="0 0 1024 1024" version="1.1" xmlns="http://www.w3.org/2000/svg" p-id="21261" xmlns:xlink="http://www.w3.org/1999/xlink" width="200" height="200"><path d="M422 687h108v53H422z" fill="#1083EA" p-id="21262"></path><path d="M674 656v-80H166V288h620v52h73V221.552c0-6.861-5.195-12.552-12.056-12.552H106.552C99.691 209 94 214.691 94 221.552v421.525C94 649.939 99.691 656 106.552 656H674z" fill="#53AFFD" p-id="21263"></path><path d="M166 288v288h508V370.097C674 353.373 687.118 340 703.843 340H786v-52H166z" fill="#FFFFFF" p-id="21264"></path><path d="M705 371v401h223V371H705z m180 92.223c0 8.161-6.616 14.777-14.777 14.777H762.777c-8.161 0-14.777-6.616-14.777-14.777v-5.447c0-8.161 6.616-14.777 14.777-14.777h107.447c8.161 0 14.777 6.616 14.777 14.777v5.447z m0 100c0 8.161-6.616 14.777-14.777 14.777H762.777c-8.161 0-14.777-6.616-14.777-14.777v-5.447c0-8.161 6.616-14.777 14.777-14.777h107.447c8.161 0 14.777 6.616 14.777 14.777v5.447z m-68.485 143.628c-17.181 0-31.109-13.928-31.109-31.109s13.928-31.109 31.109-31.109 31.109 13.928 31.109 31.109-13.928 31.109-31.109 31.109z" fill="#1083EA" p-id="21265"></path><path d="M928.605 340H890V221.552C890 197.537 870.959 178 846.944 178H106.552C82.537 178 63 197.537 63 221.552v421.525C63 667.093 82.537 687 106.552 687H391v53h-70.574c-17.153 0-31.109 14.347-31.109 31.5s13.956 31.5 31.109 31.5H633.07c17.153 0 31.109-14.347 31.109-31.5S650.223 740 633.07 740H562v-53h112v85.957C674 789.682 687.118 803 703.843 803h224.762C945.329 803 959 789.682 959 772.957v-402.86C959 353.373 945.329 340 928.605 340zM928 772H705V371h223v401z m-506-32v-53h108v53H422z m-315.448-84C99.691 656 94 649.939 94 643.078V221.552C94 214.691 99.691 209 106.552 209h740.391c6.861 0 12.056 5.691 12.056 12.552V340H703.842C687.118 340 674 353.373 674 370.097V656H106.552z" fill="" p-id="21266"></path><path d="M885 457.777c0-8.161-6.616-14.777-14.777-14.777H762.777c-8.161 0-14.777 6.616-14.777 14.777v5.447c0 8.161 6.616 14.777 14.777 14.777h107.447c8.161 0 14.777-6.616 14.777-14.777v-5.447zM885 557.777c0-8.161-6.616-14.777-14.777-14.777H762.777c-8.161 0-14.777 6.616-14.777 14.777v5.447c0 8.161 6.616 14.777 14.777 14.777h107.447c8.161 0 14.777-6.616 14.777-14.777v-5.447z" fill="" p-id="21267"></path><path d="M816.515 675.742m-31.109 0a31.109 31.109 0 1 0 62.218 0 31.109 31.109 0 1 0-62.218 0Z" fill="" p-id="21268"></path></svg>