<?xml version="1.0" standalone="no"?><!DOCTYPE svg PUBLIC "-//W3C//DTD SVG 1.1//EN" "http://www.w3.org/Graphics/SVG/1.1/DTD/svg11.dtd"><svg t="1725797820904" class="icon" viewBox="0 0 1024 1024" version="1.1" xmlns="http://www.w3.org/2000/svg" p-id="7132" xmlns:xlink="http://www.w3.org/1999/xlink" width="200" height="200"><path d="M876.982857 262.765714l-99.474286-122.624c-8.777143-9.728-21.942857-15.323429-35.108571-15.323428H277.211429c-13.165714 0-26.331429 5.595429-33.645715 15.36L144.091429 262.729143c-10.24 12.544-7.314286 29.257143 4.388571 38.985143a30.72 30.72 0 0 0 40.96-4.169143l95.085714-117.028572h452.022857l95.085715 117.028572c5.851429 6.948571 13.165714 11.154286 23.405714 11.154286 5.851429 0 13.165714-1.389714 17.554286-5.558858 5.851429-4.205714 10.24-11.154286 10.24-18.139428 0-9.728-1.462857-16.713143-5.851429-22.308572z" fill="#0078FF" p-id="7133"></path><path d="M834.56 255.780571H185.051429c-32.182857 0-57.051429 25.088-57.051429 54.345143v540.525715c0 30.683429 26.331429 54.381714 57.051429 54.381714h649.508571c32.182857 0 57.051429-25.088 57.051429-54.345143V310.125714c0-30.646857-24.868571-54.345143-57.051429-54.345143z" fill="#0078FF" p-id="7134"></path><path d="M511.378286 425.545143a36.571429 36.571429 0 0 1 36.315428 32.329143l0.256 4.242285v235.264a36.571429 36.571429 0 0 1-72.886857 4.278858l-0.256-4.278858v-235.264a36.571429 36.571429 0 0 1 36.571429-36.571428z" fill="#FFFFFF" p-id="7135"></path><path d="M595.529143 622.738286a36.571429 36.571429 0 0 1 42.569143 59.318857l-3.474286 2.486857-103.716571 65.609143a36.571429 36.571429 0 0 1-35.145143 2.194286l-4.096-2.304-102.473143-65.609143a36.571429 36.571429 0 0 1 35.730286-63.670857l3.693714 2.084571 82.870857 53.065143 84.041143-53.174857z" fill="#FFFFFF" p-id="7136"></path></svg>