<?xml version="1.0" standalone="no"?><!DOCTYPE svg PUBLIC "-//W3C//DTD SVG 1.1//EN" "http://www.w3.org/Graphics/SVG/1.1/DTD/svg11.dtd"><svg t="1725796918251" class="icon" viewBox="0 0 1024 1024" version="1.1" xmlns="http://www.w3.org/2000/svg" p-id="2718" xmlns:xlink="http://www.w3.org/1999/xlink" width="200" height="200"><path d="M131.33913 1006.191304c-40.069565 0-71.234783-11.130435-95.721739-35.617391-64.556522-64.556522-40.069565-193.669565 66.782609-360.626087 8.904348-15.582609 26.713043-22.26087 42.295652-20.034783 17.808696 2.226087 31.165217 13.356522 37.843478 31.165218 17.808696 51.2 44.521739 97.947826 84.591305 135.791304 33.391304 33.391304 71.234783 57.878261 113.530435 75.686957 15.582609 6.678261 26.713043 20.034783 26.713043 37.843478 2.226087 15.582609-6.678261 33.391304-20.034783 42.295652-102.4 62.330435-189.217391 93.495652-256 93.495652z m4.452174-276.034782c-53.426087 102.4-53.426087 160.278261-35.617391 178.086956 15.582609 15.582609 73.46087 15.582609 171.408696-33.391304-24.486957-15.582609-46.747826-33.391304-66.782609-55.652174-28.93913-26.713043-51.2-55.652174-69.008696-89.043478z" p-id="2719"></path><path d="M512 948.313043c-55.652174 0-111.304348-11.130435-166.956522-33.391304-15.582609-6.678261-26.713043-20.034783-26.713043-37.843478-2.226087-15.582609 6.678261-33.391304 20.034782-42.295652 89.043478-55.652174 184.765217-131.33913 273.808696-222.608696 89.043478-89.043478 166.956522-184.765217 222.608696-273.808696 8.904348-13.356522 24.486957-22.26087 42.295652-20.034782 15.582609 2.226087 31.165217 11.130435 37.843478 26.713043 66.782609 162.504348 28.93913 349.495652-95.721739 474.156522-82.365217 84.591304-193.669565 129.113043-307.2 129.113043z m-44.521739-93.495652c104.626087 13.356522 211.478261-22.26087 289.391304-97.947826 77.913043-77.913043 111.304348-184.765217 97.947826-289.391304-51.2 69.008696-111.304348 140.243478-180.313043 207.026087-66.782609 69.008696-135.791304 131.33913-207.026087 180.313043z" p-id="2720"></path><path d="M872.626087 407.373913H868.173913c-15.582609-2.226087-31.165217-11.130435-37.843478-26.713043-17.808696-42.295652-42.295652-80.13913-75.686957-113.530435-37.843478-37.843478-84.591304-66.782609-135.791304-84.591305-15.582609-4.452174-28.93913-20.034783-31.165217-37.843478s6.678261-33.391304 20.034782-42.295652c169.182609-106.852174 298.295652-131.33913 360.626087-66.782609 62.330435 62.330435 42.295652 186.991304-60.104348 351.721739-4.452174 11.130435-20.034783 20.034783-35.617391 20.034783zM730.156522 135.791304c31.165217 17.808696 62.330435 42.295652 89.043478 69.008696 20.034783 20.034783 37.843478 42.295652 55.652174 66.782609 48.973913-100.173913 48.973913-155.826087 33.391304-171.408696-15.582609-17.808696-75.686957-17.808696-178.086956 35.617391z" p-id="2721"></path><path d="M362.852174 917.147826c-6.678261 0-11.130435 0-17.808696-4.452174-53.426087-22.26087-100.173913-53.426087-142.469565-95.721739-48.973913-48.973913-84.591304-106.852174-106.852174-171.408696-48.973913-155.826087-8.904348-325.008696 106.852174-442.991304 117.982609-115.756522 287.165217-155.826087 445.217391-104.626087 64.556522 22.26087 122.434783 57.878261 171.408696 106.852174 40.069565 40.069565 73.46087 89.043478 95.721739 142.469565 4.452174 13.356522 4.452174 28.93913-2.226087 40.069565-60.104348 95.721739-140.243478 195.895652-235.965217 289.391305-95.721739 95.721739-195.895652 175.86087-289.391305 235.965217-8.904348 2.226087-15.582609 4.452174-24.486956 4.452174zM512 164.730435c-91.269565 0-178.086957 35.617391-244.869565 102.4-93.495652 93.495652-124.66087 229.286957-84.591305 353.947826 17.808696 51.2 44.521739 97.947826 84.591305 138.017391 26.713043 26.713043 57.878261 48.973913 93.495652 66.782609 82.365217-53.426087 171.408696-126.886957 253.773913-209.252174s155.826087-171.408696 209.252174-253.773913c-17.808696-33.391304-40.069565-64.556522-66.782609-93.495652-37.843478-37.843478-84.591304-66.782609-135.791304-84.591305-37.843478-13.356522-73.46087-20.034783-109.078261-20.034782z" p-id="2722"></path><path d="M534.26087 512m-378.434783 0a378.434783 378.434783 0 1 0 756.869565 0 378.434783 378.434783 0 1 0-756.869565 0Z" p-id="2723"></path><path d="M311.652174 534.26087m-89.043478 0a89.043478 89.043478 0 1 0 178.086956 0 89.043478 89.043478 0 1 0-178.086956 0Z" fill="#FFDE1D" p-id="2724"></path><path d="M289.391304 963.895652l-31.165217-84.591304C549.843478 772.452174 872.626087 273.808696 874.852174 267.130435l75.686956 48.973913c-13.356522 22.26087-342.817391 529.808696-661.147826 647.791304z" fill="#FFDE1D" p-id="2725"></path></svg>