<?xml version="1.0" standalone="no"?><!DOCTYPE svg PUBLIC "-//W3C//DTD SVG 1.1//EN" "http://www.w3.org/Graphics/SVG/1.1/DTD/svg11.dtd"><svg t="1725798708197" class="icon" viewBox="0 0 1024 1024" version="1.1" xmlns="http://www.w3.org/2000/svg" p-id="13705" xmlns:xlink="http://www.w3.org/1999/xlink" width="200" height="200"><path d="M831.825143 92.842525H678.930917c-37.352723 0-69.995167 20.103874-87.744413 50.070372-13.120832-16.555048-31.477922-29.193903-53.450353-35.080983l-147.683551-39.572274c-54.375421-14.569834-110.267383 17.699104-124.837216 72.074525L129.799228 645.712351c-0.795109 2.304486-1.542122 4.6366-2.180665 7.02909l-33.755802 126.943181a103.392812 103.392812 0 0 0-1.290389 5.447059c-11.467169 52.815903 20.47431 105.865119 73.240071 120.003118l147.683551 39.57125c54.375421 14.569834 110.267383-17.699104 124.837216-72.074525l138.668223-517.517667v502.196726c0 56.294121 45.635363 101.929484 101.929484 101.929484h152.893202c56.294121 0 101.929484-45.635363 101.929484-101.929484v-662.539598c0-56.294121-45.635363-101.928461-101.92846-101.92846z m-491.841892 752.867859L192.375425 806.002011l33.976836-126.804011 147.386792 39.570227-33.755802 126.942157z m60.412928-225.316675c-0.093121-0.025583-0.183172-0.056282-0.276292-0.081864L252.752538 580.667939l110.918205-413.95294 147.683551 39.572274-110.958115 414.106436z m431.428964 236.916874H678.930917v-101.929483h152.893202v101.929483zM678.930917 653.452639V194.770985h152.893202v458.680631H678.930917z" fill="#34BC6E" p-id="13706"></path></svg>