<?xml version="1.0" standalone="no"?><!DOCTYPE svg PUBLIC "-//W3C//DTD SVG 1.1//EN" "http://www.w3.org/Graphics/SVG/1.1/DTD/svg11.dtd"><svg t="1725799110419" class="icon" viewBox="0 0 1024 1024" version="1.1" xmlns="http://www.w3.org/2000/svg" p-id="47652" xmlns:xlink="http://www.w3.org/1999/xlink" width="200" height="200"><path d="M512 983.467C251.733 977.067 46.933 761.6 51.2 501.333 57.6 249.6 260.267 46.933 512 40.533c17.067 0 32 14.934 32 32s-14.933 32-32 32C288 104.533 104.533 288 104.533 512S288 919.467 512 919.467 919.467 736 919.467 512c0-91.733-29.867-181.333-87.467-251.733-10.667-12.8-8.533-34.134 4.267-44.8 12.8-10.667 34.133-8.534 44.8 4.266 66.133 83.2 102.4 185.6 102.4 292.267 0 260.267-211.2 471.467-471.467 471.467z" fill="#FB7299" p-id="47653"></path><path d="M514.133 650.667c-76.8 0-138.666-61.867-138.666-138.667s61.866-138.667 138.666-138.667S652.8 435.2 652.8 512s-61.867 138.667-138.667 138.667z m0-213.334c-40.533 0-74.666 34.134-74.666 74.667s34.133 74.667 74.666 74.667S588.8 552.533 588.8 512s-34.133-74.667-74.667-74.667z" fill="#FB7299" p-id="47654"></path><path d="M620.8 544c-17.067 0-32-14.933-32-32V189.867c0-49.067 40.533-89.6 89.6-89.6 38.4 0 74.667 25.6 85.333 64l14.934 44.8c6.4 17.066-4.267 34.133-21.334 40.533-17.066 6.4-34.133-4.267-40.533-21.333l-12.8-44.8c-4.267-14.934-19.2-21.334-34.133-17.067-10.667 4.267-17.067 12.8-17.067 23.467v320c0 19.2-12.8 34.133-32 34.133z" fill="#FB7299" p-id="47655"></path></svg>