<?xml version="1.0" standalone="no"?><!DOCTYPE svg PUBLIC "-//W3C//DTD SVG 1.1//EN" "http://www.w3.org/Graphics/SVG/1.1/DTD/svg11.dtd"><svg t="1725799068508" class="icon" viewBox="0 0 1024 1024" version="1.1" xmlns="http://www.w3.org/2000/svg" p-id="39583" xmlns:xlink="http://www.w3.org/1999/xlink" width="200" height="200"><path d="M770.753421 553.728537l-6.912287-348.92878s-4.608597-82.176301-124.671721-88.063239c-120.064341-5.888154-468.223198 0-468.223198 0s-69.632501 7.424353-70.656634 117.760651c-1.024133 110.335081-4.60738 605.183293 0 616.701744 4.608597 11.519667 55.040436 56.83206 144.896516 56.83206 89.854862 0 261.887242-6.913503 261.887241-6.913503s-171.007031-97.279215-163.327252-195.837988c7.424353-98.561206 92.671835-182.52913 171.008247-153.601642 78.335195 28.929921 105.984342 52.225896 105.984342 52.225896s93.950176-77.311063 150.014746-50.175199z" fill="#FAAF19" p-id="39584"></path><path d="M360.3852 877.822711H184.257506c-2.815756 0-5.120663 0-8.191844-0.51085h-0.512067c-1.79284-0.513283-3.583248-0.513283-5.888154-1.280774-3.583248-0.513283-6.40022-1.794056-9.728043-2.816973-0.512066 0-0.512066 0-1.279557-0.51085-1.280774-0.513283-2.815756-1.280774-4.096531-2.304906-2.815756-1.280774-5.119447-2.81454-8.191844-4.608597-0.512066-0.51085-2.30369-1.791624-2.81454-2.304906-0.512066-0.51085-1.280774-1.278341-2.304907-1.791624-2.304906-2.304906-4.60738-4.095314-6.40022-6.40022-0.512066-0.513283-1.280774-1.791624-2.304907-2.304907v-0.51085l-1.279557-1.280774c-0.513283-0.513283-0.513283-0.513283-0.513283-1.280774-1.791624-2.81454-3.583248-5.119447-5.119446-8.190628-0.512066-1.794056-1.79284-2.816973-2.304907-4.608596v-0.513283c-1.279558-2.81454-2.30369-6.40022-2.815756-9.728043-0.512066-1.791624-0.512066-3.582031-1.279558-5.119447v-1.280773c0-2.81454-0.512066-5.886938-0.512066-8.703911v-34.814426-82.177517-111.872497-122.366814-114.687037-89.344013-44.544901-2.302474c0-2.816973 0-5.121879 0.512066-8.193061v-1.791624c0.512066-1.791624 0.512066-4.095314 1.279558-5.88937 0.513283-3.582031 1.79284-6.40022 2.815756-9.214761 0.512066-1.791624 1.79284-3.584464 2.304907-4.608596a152.823204 152.823204 0 0 0 5.119446-8.703911c0.513283-0.51085 1.280774-1.278341 1.280774-1.791624 0.512066-0.513283 1.79284-1.791624 2.304907-2.81454l6.912286-6.913503c1.280774-0.513283 2.304906-1.791624 2.815757-2.304907 0.512066-0.51085 1.279558-0.51085 1.791624-1.280773a155.145139 155.145139 0 0 1 8.70391-5.119447c0.512066-0.51085 1.79284-0.51085 2.304907-1.280774 1.280774 0 2.304906-0.51085 2.815756-1.280774 2.81454-1.278341 5.888154-1.791624 9.215977-2.81454 1.791624-0.512066 3.583248-0.512066 5.119447-1.279557h1.79284c13.823357-1.279558 27.903356-0.512066 41.215863-0.512067h456.191464c2.815756 0 6.913503 1.279558 9.728043 0.512067h0.512066c1.79284 0.512066 3.584464 0.512066 5.888154 1.279557 2.815756 0.512066 5.888154 1.791624 8.191845 2.81454 0.512066 0 1.280774 0.513283 1.280774 0.513283 1.791624 0.513283 3.583248 1.791624 5.119446 2.304906 2.815756 1.791624 5.888154 3.584464 8.191845 5.119447 1.280774 1.280774 2.304906 2.304906 4.095314 3.584464l6.913503 6.91107 1.279557 1.280774c0.768708 0.767491 2.304906 2.816973 2.304907 3.584464a152.823204 152.823204 0 0 1 5.119446 8.703911c0.512066 1.280774 1.280774 2.81454 1.79284 4.095314 0 0.51085 0.512066 0.51085 0.512067 1.280774 1.280774 3.582031 2.304906 6.40022 2.815756 9.728043 0 1.278341 0.512066 1.791624 0.512066 2.81454 0 1.280774 0.512066 2.304906 0.512067 2.81454v228.609015c0 12.799225 11.007601 24.832174 24.320108 24.318892 13.311291-0.51085 24.318892-10.495534 24.318891-24.318892v-70.655418-116.994375-31.232395c0-23.805609-6.40022-46.847376-20.223577-66.558887-20.992285-28.415422-51.455972-46.336526-87.040323-48.640216-5.120663-0.512066-9.728043 0-15.104131 0H190.404734c-9.728043 0-19.712728 0.512066-28.928704 2.30369-31.999886 5.888154-60.159883 27.137081-76.031506 55.552503-9.728043 17.409038-14.592065 37.119333-14.592064 56.83206v601.597613c0.512066 33.025235 15.104131 65.535971 41.215862 86.272831 21.504352 16.895755 46.336526 26.112948 73.727816 26.112948h174.591494c12.800441 0 24.832174-11.008817 24.320108-24.321324-0.514499-11.255728-10.242542-22.264545-24.32254-22.264545z" fill="" p-id="39585"></path><path d="M133.826883 852.733895c-0.512066-2.302474-1.79284-2.81454-1.792841-2.302473v0.51085c0.768708 0.768708 1.79284 1.28199 1.792841 1.791623zM184.258722 281.855395h227.839091c12.799225 0 24.832174-11.006384 24.320108-24.318892s-10.496751-24.318892-24.320108-24.318892h-227.839091c-12.799225 0-24.832174 11.006384-24.320108 24.318892 1.022916 13.312507 11.007601 24.318892 24.320108 24.318892zM464.833343 422.144529h111.872497c17.919887 0 35.839775 0.51085 54.527153 0h0.512067c12.800441 0 24.832174-11.008817 24.320108-24.318891-0.512066-13.312507-10.495534-24.321324-24.320108-24.321324H239.297942c-17.919887 0-35.840991-0.51085-54.52837 0h-0.512066c-12.799225 0-24.832174 11.008817-24.320108 24.321324 0.512066 13.310075 10.496751 24.318892 24.320108 24.318891h280.575837zM286.914026 513.792232H184.770789c-12.799225 0-24.832174 11.006384-24.320108 24.318892s10.496751 24.318892 24.320108 24.318891h102.143237c12.799225 0 24.832174-11.006384 24.320108-24.318891-1.280774-13.312507-11.008817-24.318892-24.320108-24.318892zM601.538014 621.566982c-1.024133-1.791624-2.816973-3.582031 0 0zM852.417655 648.702846c-0.512066-1.280774-1.280774-1.791624-1.79284-2.81454 0.256641 0 0.256641 0.51085 1.79284 2.81454z" fill="" p-id="39586"></path><path d="M875.712414 795.392202c0.512066-0.513283 1.280774-1.794056 1.79284-2.304907l0.512067-0.513282c0.512066-0.51085 1.280774-1.791624 1.79284-2.304907 0-0.51085 0.512066-0.51085 0.512066-1.278341 0.512066-0.513283 0.512066-1.280774 1.279558-2.304907 0.512066-0.513283 0.512066-1.280774 1.280773-1.794056 0.512066-0.51085 0.512066-1.278341 1.280774-1.791624 0.767491-0.51085 0.512066-1.280774 1.279558-2.304906 0-0.51085 0.512066-0.51085 0.512066-1.280774 0.512066-1.278341 1.280774-1.791624 1.79284-2.81454 14.592065-25.599666 22.527268-54.016304 22.527268-83.454642v-0.513283-2.81454-1.794057-1.278341c-1.280774-31.232395-11.007601-63.233497-28.927488-88.576521-8.703911-12.287158-18.431954-23.294759-29.439555-32.511952-4.09653-3.582031-8.191844-6.91107-12.288374-9.728043-39.936305-29.438338-95.744233-39.423023-143.615742-25.599666-27.137081 7.424353-51.455972 22.017634-71.936191 41.727929-13.311291-13.310075-28.927488-24.318892-46.336526-31.999886h-0.512066c-6.40022-2.81454-13.311291-5.886938-20.223577-8.190628-33.024019-10.495534-70.144567-10.495534-103.168586 0.51085-28.415422 9.217193-55.03922 26.626231-74.750732 49.92099-6.401437 7.424353-12.800441 15.614981-17.919887 24.318892-13.823357 22.527268-21.504352 49.151066-23.295976 76.031505-2.304906 27.137081 3.584464 54.016304 13.823358 78.337628v0.51085c0.513283 0.513283 0.513283 1.791624 1.280773 2.304906 0.512066 0.513283 0.512066 1.280774 1.280774 2.304907 0 0.51085 0.512066 0.51085 0.512067 1.280774 4.095314 8.703911 8.703911 16.895755 14.592064 24.318891 0.512066 1.280774 1.279558 1.791624 2.30369 2.81454 0 0 0 0.513283 0.512067 0.513283 2.304906 5.119447 6.40022 8.703911 10.496751 12.799225l15.616197 15.617413 52.73553 52.733098 112.895413 112.895412c12.288375 12.289591 23.294759 25.602098 39.935089 31.232395 6.40022 2.304906 12.800441 3.584464 19.200661 3.584464 16.128264 0 32.510736-6.40022 44.031619-17.918671 2.81454-2.816973 5.888154-5.88937 8.703911-8.703911l105.47106-105.472276c29.439555-29.440771 59.647817-58.6249 88.575305-88.576521 1.790408-2.045833 4.094098-4.861589 5.885721-7.93277 0 0.767491 0 0.767491 0 0zM625.856905 976.895983s0.512066 0 0 0c0.512066 0 0 0 0 0z m-2.30369 0.509634c-0.51085 0-0.51085 0 0 0h-2.304906c0.513283-0.509634 1.28199 0 2.304906 0-0.51085 0-0.51085 0 0 0 0 0-0.512066-0.51085-1.79284-0.51085h-0.512066c-0.512066 0-1.79284-0.513283-2.304907-0.513283-0.512066-0.51085-1.791624-1.278341-2.30369-1.791624l-1.280774-1.280774-0.512066-0.51085-9.728043-9.728043-104.96021-104.961426c-28.927488-28.927488-57.854976-58.622468-87.551172-87.549956l-1.791624-1.794056c0-0.51085-1.79284-2.302474-1.79284-2.814541-0.512066-0.51085-1.280774-1.280774-1.280774-2.304906-0.512066-1.280774-1.279558-1.791624-1.791624-2.81454-0.512066-0.513283-0.512066-1.280774-1.280774-1.791624-0.512066-1.280774-1.280774-2.304906-2.304906-3.584464-0.512066-0.513283-1.279558-1.794056-1.791624-2.816973-0.512066-0.51085-1.280774-1.791624-1.280774-2.302474-0.512066-1.280774-1.280774-1.794056-1.79284-2.816972-0.512066-0.51085-0.512066-1.791624-1.279558-2.304907v-0.51085c-0.512066-1.280774-2.304906-5.119447-1.79284-3.584464-0.512066-1.280774-0.512066-2.304906-1.280774-3.584464 0-0.51085 0-0.51085-0.512066-0.51085 0-0.513283-0.512066-1.280774-0.512066-2.304906 0-0.513283 0-0.513283-0.512067-0.513283 0-0.51085-0.512066-1.278341-0.512066-2.302474v-0.513282c0-0.51085-0.512066-1.791624-0.512066-2.304907v-0.51085c0-0.513283-0.512066-1.794056-0.512067-2.304906v-0.513283c0-0.51085-0.512066-1.791624-0.512066-2.304906v-0.51085c0-0.513283-0.512066-1.794056-0.512066-2.304907v-0.513282c0-0.51085-0.512066-1.791624-0.512066-2.304907v-0.51085c0-0.513283 0-1.280774-0.512067-1.791624 0-0.513283 0-2.304906-0.512066-3.584464 0-1.280774-0.512066-2.81454-0.512066-4.095314-0.512066-4.095314-0.512066-7.424353-0.512067-11.522099v-1.278341-2.816973-0.51085c0-4.095314 0.512066-8.193061 0.512067-12.289591v-0.51085-1.280774c0-1.280774 0.512066-2.304906 0.512066-3.584464 0-0.51085 0-1.280774 0.512066-1.791624 0-1.280774 0.512066-1.794056 0.512067-2.816973 0-0.51085 0.512066-1.278341 0.512066-1.791623 0.512066-1.280774 0.512066-2.304906 0.512066-3.584464v-1.278342c0.512066-1.794056 0.512066-2.816973 1.280774-4.608596 0-0.513283 0.512066-0.513283 0.512066-1.280774 0.512066-1.280774 0.512066-1.791624 1.279558-2.81454 0-0.513283 0.512066-1.280774 0.512066-1.280774 0.513283-0.513283 0.513283-1.791624 1.280774-2.81454 0-0.513283 0.512066-0.513283 0.512066-1.280774 0.512066-1.280774 1.280774-2.816973 1.792841-4.095314 0.512066-1.280774 1.279558-2.304906 1.791623-3.584464 0-0.513283 0.512066-1.280774 0.512067-1.791624 0-0.513283 0.513283-0.513283 0.513282-1.280774 0.512066-1.280774 1.279558-1.794056 1.791624-2.816973 0-0.51085 0.512066-0.51085 0.512066-1.278341 0.512066-1.280774 1.280774-1.794056 1.792841-2.816973 0-0.51085 0.512066-0.51085 0.512066-1.280774 0.512066-1.278341 1.79284-2.302474 2.304906-3.582031s1.279558-1.794056 2.30369-2.816973c0.512066-0.51085 0.512066-1.278341 1.280774-1.791624 1.79284-1.791624 3.583248-4.095314 5.119447-6.40022 0-0.513283 0.512066-0.513283 0.512066-0.513283 1.280774-1.278341 2.304906-2.302474 2.815757-3.582031l0.512066-0.513283c1.280774-1.280774 1.79284-2.304906 2.815756-2.81454 0.512066-0.513283 0.512066-0.513283 1.280774-0.513282 0.512066-0.51085 1.791624-1.791624 2.81454-2.304907l0.512067-0.51085c1.280774-1.280774 2.304906-2.304906 3.584464-2.81454 0 0 0.512066 0 0.512066-0.513283 1.279558-0.513283 2.304906-1.791624 2.815756-2.304906 3.583248-2.304906 7.424353-5.119447 11.007601-7.424353 1.280774-0.513283 2.304906-1.280774 2.815757-1.791624 3.583248-1.794056 6.912287-2.816973 9.728043-4.608596 0 0 1.279558-1.280774 2.304906-1.791624-0.513283 0.51085-1.79284 1.278341-2.815756 1.791624 0 0 0.512066 0 2.815756-1.791624 1.279558-0.513283 2.81454-1.280774 4.095314-1.794057h0.512067c1.280774-0.51085 2.815756-1.280774 4.095314-1.280774 0.512066 0 0.512066 0 0.512066-0.51085 1.79284-0.513283 2.815756-1.280774 4.608596-1.280774 1.791624-0.51085 2.815756-0.51085 4.607381-1.280773h1.280774c1.280774 0 2.304906-0.51085 3.583247-0.51085h1.280774c1.279558 0 2.304906-0.513283 2.815757-0.513283h3.072397c-0.512066 0-1.79284 0-2.304906 0.513283-1.279558 0.51085-1.279558 0.51085 2.304906-0.513283 4.60738-0.51085 9.728043-0.51085 14.592065-0.51085H515.265183c2.304906 0 4.09653 0.51085 6.40022 0.51085h0.512067c2.304906 0.513283 4.09653 0.513283 6.40022 1.280774 0.513283 0 1.280774 0.513283 2.304906 0.513282 1.280774 0.51085 2.304906 0.51085 4.096531 1.278342 1.279558 0.513283 2.81454 0.513283 4.095314 1.280774h0.512066c0.512066 0 1.79284 0.513283 2.304906 0.513282 3.583248 1.280774 6.912287 2.81454 11.007601 4.095314 0.512066 0 0.512066 0.51085 1.280774 0.51085 2.304906 1.280774 5.119447 2.304906 7.424353 3.584464 0.512066 0 0.512066 0.513283 0.512066 0.513283 5.888154 2.81454 11.008817 6.40022 16.128264 10.495534l1.79284 1.791624-1.79284-1.791624s0.512066 0 0.512066 0.51085c0.512066 0.513283 1.280774 1.280774 1.280774 1.794057 2.30369 1.791624 4.60738 3.582031 6.912287 5.886938 1.79284 1.280774 2.815756 2.816973 4.095314 4.095314l0.512066 0.513282 3.584464 3.584464 1.279558 1.278341c1.280774 1.280774 2.304906 2.304906 3.584464 4.097747l0.512066 0.51085 1.279558 1.280774 0.512066 0.513283c5.120663 6.91107 11.520883 12.287158 20.992285 12.287158 9.215977 0 15.616197-4.608597 20.992285-12.287158l1.792841-1.794057c0.512066-0.51085 1.279558-1.791624 2.304906-2.304906l1.279558-1.278342c0.512066-1.280774 1.79284-1.794056 2.815756-2.816972l0.512066-0.51085 1.792841-1.794057c3.583248-3.582031 7.424353-6.91107 11.519667-10.495534 1.280774-0.51085 2.304906-1.791624 2.304906-1.791624 0.512066-0.513283 1.279558-0.513283 1.79284-1.280774 0.512066 0 0.512066-0.513283 0.512067-0.513283 1.279558-1.278341 2.81454-1.791624 4.095314-2.81454l0.512066-0.513282c1.280774-0.51085 2.304906-1.278341 3.583248-2.302474 0.512066-0.513283 1.79284-1.280774 2.304906-1.794057 0.512066 0 0.512066-0.51085 1.280774-0.51085 4.095314-2.304906 8.190628-4.095314 12.288374-6.40022 2.815756-1.280774 5.888154-2.304906 8.191845-2.816973 1.279558-0.51085 2.30369-0.51085 3.583247-1.280774 1.79284-0.51085 3.583248-1.278341 5.119447-1.278341h0.512066c1.79284-0.513283 3.584464-0.513283 5.120663-1.280774 1.79284-0.513283 3.583248-0.513283 5.888154-1.280774 0.512066 0 1.79284 0 2.304907-0.51085 5.119447-0.513283 11.007601-0.513283 16.128264-0.513282h11.776308c1.279558 0 2.30369 0 4.095314 0.513282 4.095314 1.278341 3.583248 0.51085 1.79284 0.51085h-1.79284 3.072398c0.768708 0 1.79284 0.513283 2.304906 0.513283h1.280774c1.791624 0.51085 2.81454 0.51085 4.60738 1.278341 0.512066 0 1.280774 0 1.280774 0.513283 1.279558 0 2.304906 0.51085 2.815757 0.51085s1.279558 0.513283 1.791623 0.513282c1.280774 0 1.79284 0.513283 2.815757 0.513283 0.512066 0 1.280774 0.51085 1.79284 0.51085 1.279558 0.513283 1.791624 0.513283 2.81454 1.280774 0.512066 0 1.280774 0.51085 1.79284 0.51085 1.280774 0.513283 2.304906 0.513283 2.815757 1.280774 0.512066 0 0.512066 0.513283 1.279557 0.513282 2.304906 1.791624 2.815756 1.791624 2.304907 1.791624 1.79284 0.513283 4.09653 1.791624 5.888154 2.304907 0.512066 0 0.512066 0.513283 1.280774 0.513282 1.279558 0.51085 2.304906 1.278341 2.815756 1.791624 0.512066 0 0.512066 0.51085 1.279558 0.51085 1.280774 0.513283 2.815756 1.794056 4.09653 2.304906l0.512066 0.513283c1.279558 0.51085 2.30369 1.280774 3.583248 2.304906 0.512066 0 0.512066 0.51085 0.512066 0.51085 1.279558 0.513283 2.30369 1.794056 3.583248 2.304907 0 0 0.512066 0 0.512066 0.513282l0.512067 0.51085-0.512067-0.51085 0.512067 0.51085 0.512066 0.513283 1.79284 1.791624-1.280774-1.280774c0.512066 0.513283 1.79284 1.280774 2.304907 1.794057 1.280774 1.278341 2.304906 2.304906 3.583247 2.81454l1.280774 1.280774 2.304907 2.304906 1.279557 1.280774c4.09653 4.095314 7.424353 8.190628 11.520884 12.287158 1.279558 2.304906 1.79284 2.81454 1.79284 2.304907-0.513283-0.513283-1.280774-1.791624-1.280774-2.304907l0.512066 0.513283c0.512066 0.51085 1.280774 1.791624 1.280774 1.791624 2.30369 3.584464 4.60738 6.40022 6.912287 9.728043 0.512066 0.51085 0.512066 1.280774 0.512066 1.791624 2.30369 4.095314 4.095314 8.193061 5.888154 12.289591 0 0 1.279558 1.280774 1.791624 2.304906a29.079527 29.079527 0 0 0 1.79284 4.606164c1.280774 2.816973 1.79284 5.88937 2.815757 8.703911 1.280774 4.608597 1.79284 9.728043 2.815756 14.593281 0-0.513283 0 0.51085 0.512066 1.280774v1.278341c0-0.51085-0.512066-1.791624-0.512066-2.304907 0 0.513283 0 1.280774 0.512066 2.816973v5.377304c0 2.81454 0.512066 6.40022 0.512067 9.214761v1.280774c0 2.81454 0 5.88937-0.512067 8.70391v8.706344c-0.512066 2.304906-0.512066 4.608597-1.280773 6.913503v1.278341c0 0.513283-0.512066 1.794056-0.512067 2.304906 0 0.513283 0 0.513283-0.512066 1.280774 0 0.513283-0.512066 1.280774-0.512066 2.304907 0 0.513283 0 0.513283-0.512067 1.280774 0 0.51085-0.512066 1.280774-0.512066 1.791623 0 0.513283 0 0.513283-0.512066 1.280774 0 0.51085-0.512066 1.280774-0.512066 1.791624 0 0.513283 0 0.513283-0.512067 1.280774 0 0.513283-0.512066 1.280774-0.512066 2.304906 0 0.513283 0 0.513283-0.512066 1.280774-0.512066 0.51085-0.512066 1.791624-1.280774 2.304907v1.024132c0 0.51085-0.512066 1.280774-0.512066 1.791624-1.280774 0.513283-1.79284 4.095314-2.304907 5.119447-0.512066 1.794056-1.791624 2.816973-2.304906 4.608596 0 0.513283-0.512066 0.513283-0.512067 1.280774-0.512066 1.791624-1.791624 2.81454-2.30369 4.608597 0 0.51085-0.512066 0.51085-0.512066 1.278341-0.512066 1.794056-1.79284 2.816973-2.815757 4.608597v0.513282c-1.280774 1.791624-2.304906 2.81454-2.815756 4.606164-0.512066 0.513283-2.815756 3.584464-1.79284 2.304907-0.512066 0.513283-1.279558 1.280774-1.791624 2.304906l-72.447041 72.448258-111.360431 111.359214-14.592064 14.593281-3.583248 3.582031-0.512066 0.513283-0.512067 0.51085c-1.280774 0.513283-2.304906 1.794056-3.584464 2.304906-0.512066 0-1.279558 0.513283-1.791623 0.513283h-1.280774c-5.130393-6.920801-5.641243-6.920801-5.130394-6.411167H625.344839h-1.791624z m-3.584464-0.509634h0z" fill="" p-id="39587"></path></svg>