<?xml version="1.0" standalone="no"?><!DOCTYPE svg PUBLIC "-//W3C//DTD SVG 1.1//EN" "http://www.w3.org/Graphics/SVG/1.1/DTD/svg11.dtd"><svg t="1725799099299" class="icon" viewBox="0 0 1024 1024" version="1.1" xmlns="http://www.w3.org/2000/svg" p-id="46599" xmlns:xlink="http://www.w3.org/1999/xlink" width="200" height="200"><path d="M445.83985 657.732057h123.789463v192.085401H445.83985z" fill="#DDDDED" p-id="46600"></path><path d="M569.629313 866.230805H445.83985a16.413347 16.413347 0 0 1-16.413347-16.413347v-192.085401a16.413347 16.413347 0 0 1 16.413347-16.413347h123.789463a16.413347 16.413347 0 0 1 16.413347 16.413347v192.085401a16.413347 16.413347 0 0 1-16.413347 16.413347z m-107.376116-32.826694h90.962769v-159.258707H462.253197v159.258707z" fill="#6E6E96" p-id="46601"></path><path d="M463.738605 657.732057h41.033367v192.085401h-41.033367z" fill="#FFFFFF" p-id="46602"></path><path d="M501.329273 30.262109S358.33209-23.093579 313.515446 119.8995C268.698801 262.896683 415.959351 435.766158 415.959351 657.732057h183.538151c0.008207 0 115.258626-529.293513-98.168229-627.469948z" fill="#FF6670" p-id="46603"></path><path d="M445.83985 675.634915h123.789463v41.033368H445.83985z" fill="#6E6E96" opacity=".25" p-id="46604"></path><path d="M902.192448 937.829928c5.133274 20.537201-7.976887 37.336261-29.150104 37.336261H168.819481c-21.165011 0-34.279275-16.799061-29.146001-37.336261l15.966084-63.868437c5.133274-20.533097 26.647069-37.332158 47.81208-37.332158h634.962641c21.165011 0 42.674702 16.799061 47.807976 37.332158l15.970187 63.868437z" fill="#C5C5D4" p-id="46605"></path><path d="M714.210384 937.825825c5.137378 20.541304-7.972783 37.340365-29.150104 37.340364H245.272852c-21.156804 0-34.279275-16.799061-29.146001-37.340364l15.970187-63.872541c5.133274-20.533097 26.647069-37.332158 47.81208-37.332157H650.432221c21.169114 0 42.678806 16.799061 47.816183 37.332157l15.96198 63.872541z" fill="#D3D3E3" p-id="46606"></path><path d="M564.061085 941.527034c5.137378 20.537201-7.972783 37.336261-29.150104 37.336262H351.319487c-21.165011 0-34.283379-16.799061-29.150104-37.336262l15.97429-63.87254c5.129171-20.533097 26.642966-37.332158 47.803873-37.332158h114.335376c21.169114 0 42.674702 16.799061 47.81208 37.332158l15.966083 63.87254z" fill="#EDEDFF" opacity=".61" p-id="46607"></path><path d="M873.046447 991.575433H168.819481c-15.174139 0-28.797217-6.294519-37.369088-17.275048-8.571871-10.980529-11.378553-25.727922-7.697859-40.450694l15.966083-63.868437c6.975673-27.906793 34.972739-49.765268 63.73713-49.765268h634.962641c28.764391 0 56.757354 21.858475 63.733027 49.765268l15.970186 63.868437c3.67659 14.726876 0.874011 29.470165-7.697859 40.450694-8.580077 10.980529-22.199052 17.275048-37.377295 17.275048zM203.451644 853.04268c-13.672318 0-28.575637 11.63296-31.891134 24.894944l-15.96198 63.868437c-1.231001 4.924004-0.619604 9.289954 1.723402 12.289494 2.343005 2.999539 6.421722 4.653184 11.493446 4.653184h704.226966c5.071724 0 9.154544-1.649541 11.501653-4.653184 2.338902-2.999539 2.954402-7.365489 1.723401-12.289494l-15.970187-63.868437c-3.315496-13.261984-18.214712-24.894944-31.88703-24.894944H203.451644z" fill="#6E6E96" p-id="46608"></path><path d="M453.361266 571.504538c-54.681066-96.161697-106.473382-215.28977-106.473382-215.28977 31.427456 89.616875 69.071468 189.291028 69.071467 301.517289h183.538151S714.747921 128.434441 501.321066 30.262109c0 0-26.954819-10.049072-61.123304-9.733115 127.11727 41.320601 177.042568 195.113663 121.032021 452.487255-5.584641 25.695095-13.889795 59.707653-36.211947 98.480082l-71.65657 0.008207z" fill="#AB5656" opacity=".44" p-id="46609"></path><path d="M599.501605 674.145404h-183.542254a16.413347 16.413347 0 0 1-16.413347-16.413347c0-102.727036-33.183684-196.869891-62.465095-279.925531-34.537786-97.979475-64.369044-182.598486-39.2279-262.814616C320.265435 43.487163 371.388907 4.103337 441.80627 4.103337c35.953437 0 64.077707 10.340409 65.259468 10.779465 0.38161 0.139513 0.755014 0.29544 1.12021 0.467781 94.791183 43.602056 141.454328 166.312342 138.68868 364.716882-2.031152 145.730005-31.045846 279.827051-31.341286 281.164738a16.413347 16.413347 0 0 1-16.031737 12.913201z m-167.387417-32.826694h153.965402c7.111083-36.560731 26.392662-145.730005 27.97655-262.059603 1.719298-126.251466-17.549971-286.499076-118.943422-333.785929C491.604365 44.25859 469.237076 36.930031 441.80627 36.930031c-56.457811 0-94.352126 29.564541-112.628388 87.87706-21.874888 69.793655 6.269899 149.636382 38.862703 242.084559 28.624877 81.196828 60.873001 172.680721 64.073603 274.42706z" fill="#6E6E96" p-id="46610"></path><path d="M464.813679 165.270095c0 43.056313-22.043125 114.893429-49.240041 114.893429-27.192813 0-49.240041-71.837117-49.240042-114.893429 0-43.056313 22.047228-77.963399 49.240042-77.963399s49.240041 34.902983 49.240041 77.963399z" fill="#FFABB0" opacity=".65" p-id="46611"></path><path d="M825.718561 411.925771a16.41745 16.41745 0 0 1-16.368211-17.886445c10.894359-121.274118-21.505588-225.121365-21.833855-226.159509a16.413347 16.413347 0 1 1 31.287943-9.934178c1.423858 4.480844 34.722436 111.245563 23.245403 239.027573a16.425657 16.425657 0 0 1-16.33128 14.952559z" fill="#6E6E96" opacity=".26" p-id="46612"></path><path d="M185.717022 488.009842a16.413347 16.413347 0 0 1-15.034626-9.815182c-1.891638-4.308504-46.322569-106.941163-48.4522-235.219677a16.413347 16.413347 0 0 1 16.138423-16.684167c8.961687-0.242097 16.532344 7.074153 16.684167 16.138423 2.014738 121.413632 45.251598 221.580185 45.690655 222.577297a16.41745 16.41745 0 0 1-15.026419 23.003306z" fill="#6E6E96" opacity=".26" p-id="46613"></path></svg>