<?xml version="1.0" standalone="no"?><!DOCTYPE svg PUBLIC "-//W3C//DTD SVG 1.1//EN" "http://www.w3.org/Graphics/SVG/1.1/DTD/svg11.dtd"><svg t="1725798740434" class="icon" viewBox="0 0 1024 1024" version="1.1" xmlns="http://www.w3.org/2000/svg" p-id="18615" xmlns:xlink="http://www.w3.org/1999/xlink" width="200" height="200"><path d="M511.999743 1023.999486a511.500976 511.500976 0 1 1 489.414957-361.138362l-11.487224 37.298407-32.731573-21.166417c-38.716776-24.938342-87.938828-38.732362-138.626008-38.732362-118.270086 0-214.485326 72.804371-214.485325 162.301845 0 53.399224 35.069543 103.494118 93.814924 134.043587l58.324547 30.284499-61.519772 23.504387a509.568255 509.568255 0 0 1-182.704526 33.604416z m0-964.88003C262.289009 59.088284 59.135043 262.273423 59.135043 511.999743s203.153967 452.8647 452.8647 452.8647a454.205136 454.205136 0 0 0 104.959246-12.204201c-45.948895-40.322181-72.087394-93.518782-72.087394-150.097645 0-60.522238 29.39607-116.898477 82.779708-158.981928 51.279465-40.306595 119.049409-62.501719 190.84066-62.501719a326.910488 326.910488 0 0 1 135.680166 29.099927 454.750662 454.750662 0 0 0 10.661141-98.194721c0.031173-249.710733-203.122794-452.895873-452.833527-452.895872z" fill="#AADBFF" p-id="18616"></path><path d="M211.929146 440.005867m-71.993876 0a71.993875 71.993875 0 1 0 143.987751 0 71.993875 71.993875 0 1 0-143.987751 0Z" fill="#3FA9F5" p-id="18617"></path><path d="M355.916896 739.967359m-71.993875 0a71.993875 71.993875 0 1 0 143.987751 0 71.993875 71.993875 0 1 0-143.987751 0Z" fill="#3FA9F5" p-id="18618"></path><path d="M511.999743 511.999743m-71.993876 0a71.993875 71.993875 0 1 0 143.987751 0 71.993875 71.993875 0 1 0-143.987751 0Z" fill="#3FA9F5" p-id="18619"></path><path d="M786.305916 371.441014m-71.993876 0a71.993875 71.993875 0 1 0 143.987751 0 71.993875 71.993875 0 1 0-143.987751 0Z" fill="#3FA9F5" p-id="18620"></path><path d="M493.436265 191.432946m-71.993876 0a71.993875 71.993875 0 1 0 143.987751 0 71.993875 71.993875 0 1 0-143.987751 0Z" fill="#3FA9F5" p-id="18621"></path></svg>