<svg height="640" viewBox="0 -24 480 480" width="640" xmlns="http://www.w3.org/2000/svg"><linearGradient id="a" gradientUnits="userSpaceOnUse" x1="240" x2="240" y1="432" y2="0"><stop offset="0" stop-color="#12c2e9"/><stop offset=".5" stop-color="#c471ed"/><stop offset=".982" stop-color="#f64f59"/></linearGradient><path d="M0 240C0 107.453 107.453 0 240 0s240 107.453 240 240c0 107.664-87.848 192-200 192S80 347.664 80 240c0-83.95 68.05-152 152-152s152 68.05 152 152c0 57.438-46.563 104-104 104s-104-46.563-104-104c0-30.93 25.07-56 56-56s56 25.07 56 56a8 8 0 01-16 0c0-22.09-17.91-40-40-40s-40 17.91-40 40c0 48.602 39.398 88 88 88s88-39.398 88-88c0-75.11-60.89-136-136-136S96 164.89 96 240c0 98.688 80.8 176 184 176s184-77.313 184-176c0-123.71-100.29-224-224-224S16 116.29 16 240a8 8 0 01-16 0zm0 0" fill="url(#a)"/></svg>