<?xml version="1.0" standalone="no"?><!DOCTYPE svg PUBLIC "-//W3C//DTD SVG 1.1//EN" "http://www.w3.org/Graphics/SVG/1.1/DTD/svg11.dtd"><svg t="1725798827289" class="icon" viewBox="0 0 1024 1024" version="1.1" xmlns="http://www.w3.org/2000/svg" p-id="25128" xmlns:xlink="http://www.w3.org/1999/xlink" width="200" height="200"><path d="M720.603429 0c63.195429 0 114.468571 52.955429 114.468571 118.162286V905.874286c0 65.206857-51.2 118.162286-114.432 118.162285H300.982857C237.714286 1024 186.514286 971.044571 186.514286 905.837714V118.125714C186.514286 52.955429 237.750857 0 300.909714 0zM510.756571 875.227429c-26.953143 0-48.713143 22.528-48.713142 50.322285 0 27.794286 21.76 50.322286 48.713142 50.322286 26.953143 0 48.822857-22.528 48.822858-50.322286 0-27.794286-21.869714-50.322286-48.822858-50.322285z m228.937143-757.028572H281.856a19.346286 19.346286 0 0 0-19.053714 19.638857v669.549715c-0.146286 5.12 1.828571 10.057143 5.376 13.750857 3.584 3.693714 8.521143 5.851429 13.677714 5.961143h457.764571a19.602286 19.602286 0 0 0 13.677715-5.924572 19.163429 19.163429 0 0 0 5.412571-13.750857V137.801143a19.382857 19.382857 0 0 0-19.090286-19.638857z m-105.984 272.822857v177.737143c0 16.164571-13.165714 29.257143-29.366857 29.257143h-20.041143v60.672a27.428571 27.428571 0 0 1-27.501714 27.355429 27.465143 27.465143 0 0 1-27.501714-27.355429v-60.708571H492.141714v60.708571a27.428571 27.428571 0 0 1-27.538285 27.355429 27.465143 27.465143 0 0 1-27.501715-27.355429v-60.708571h-20.041143a29.330286 29.330286 0 0 1-29.366857-29.220572v-177.737143h246.016z m-284.16-5.156571a27.428571 27.428571 0 0 1 27.501715 27.355428v114.724572a27.428571 27.428571 0 0 1-27.501715 27.392 27.465143 27.465143 0 0 1-27.538285-27.428572V413.257143a27.428571 27.428571 0 0 1 27.538285-27.355429z m322.377143 0a27.428571 27.428571 0 0 1 27.501714 27.355428v114.724572a27.428571 27.428571 0 0 1-27.501714 27.392 27.465143 27.465143 0 0 1-27.538286-27.428572V413.257143a27.428571 27.428571 0 0 1 27.538286-27.355429zM587.702857 242.358857l1.426286 0.438857c1.865143 0.987429 2.56 3.328 1.536 5.156572l-19.236572 34.852571c37.741714 19.382857 63.268571 56.283429 63.195429 98.669714h-247.954286c0-42.349714 25.526857-79.250286 63.268572-98.669714l-19.2-34.852571a3.766857 3.766857 0 0 1 1.499428-5.12 3.803429 3.803429 0 0 1 5.193143 1.462857l19.382857 35.181714a133.851429 133.851429 0 0 1 53.869715-11.190857c19.309714 0 37.558857 4.022857 53.833142 11.227429l19.456-35.181715a3.803429 3.803429 0 0 1 5.156572-1.536zM454.326857 316.086857a10.386286 10.386286 0 1 0-0.036571 20.736 10.386286 10.386286 0 0 0 0-20.736z m112.859429 0a10.386286 10.386286 0 1 0-0.036572 20.736 10.386286 10.386286 0 0 0 0-20.736zM472.612571 39.387429a19.382857 19.382857 0 0 0-19.053714 19.712c-0.109714 5.12 1.828571 10.020571 5.412572 13.714285 3.584 3.693714 8.484571 5.851429 13.641142 5.924572h76.324572a19.602286 19.602286 0 0 0 13.641143-5.924572 19.126857 19.126857 0 0 0 5.412571-13.714285 19.382857 19.382857 0 0 0-19.017143-19.675429H472.576z" fill="#5dcc1f" p-id="25129" data-spm-anchor-id="a313x.search_index.0.i17.79743a81Pemnfs" class=""></path></svg>