<?xml version="1.0" standalone="no"?><!DOCTYPE svg PUBLIC "-//W3C//DTD SVG 1.1//EN" "http://www.w3.org/Graphics/SVG/1.1/DTD/svg11.dtd"><svg t="1725797895403" class="icon" viewBox="0 0 1024 1024" version="1.1" xmlns="http://www.w3.org/2000/svg" p-id="9127" xmlns:xlink="http://www.w3.org/1999/xlink" width="200" height="200"><path d="M788.1 168.2c18.5 0 36.1 7.3 49.4 20.6 13.3 13.3 20.6 30.8 20.6 49.4v550.1c0 18.5-7.3 36.1-20.6 49.4-13.3 13.3-30.8 20.6-49.4 20.6H238c-18.5 0-36.1-7.3-49.4-20.6-13.3-13.3-20.6-30.8-20.6-49.4V238.2c0-18.5 7.3-36.1 20.6-49.4 13.3-13.3 30.8-20.6 49.4-20.6h550.1m0-70H238c-77 0-140 63-140 140v550.1c0 77 63 140 140 140h550.1c77 0 140-63 140-140V238.2c0-77-63-140-140-140z" fill="#475779" p-id="9128"></path><path d="M721.7 284.8H304.5c-19.2 0-34.9 15.7-34.9 34.9s15.7 34.9 34.9 34.9h417.2c19.2 0 34.9-15.7 34.9-34.9s-15.7-34.9-34.9-34.9z" fill="#475779" p-id="9129"></path><path d="M571.1 478.3H304.5c-19.2 0-34.9 15.7-34.9 34.9s15.7 34.9 34.9 34.9h266.6c19.2 0 34.9-15.7 34.9-34.9s-15.7-34.9-34.9-34.9z" fill="#22AC38" p-id="9130"></path><path d="M721.7 477.1H681c-19.2 0-34.9 15.7-34.9 34.9s15.7 34.9 34.9 34.9h40.7c19.2 0 34.9-15.7 34.9-34.9s-15.7-34.9-34.9-34.9zM721.7 671.8H455.1c-19.2 0-34.9 15.7-34.9 34.9s15.7 34.9 34.9 34.9h266.6c19.2 0 34.9-15.7 34.9-34.9s-15.7-34.9-34.9-34.9zM345.2 671.8h-40.7c-19.2 0-34.9 15.7-34.9 34.9s15.7 34.9 34.9 34.9h40.7c19.2 0 34.9-15.7 34.9-34.9s-15.7-34.9-34.9-34.9z" fill="#475779" p-id="9131"></path></svg>