<?xml version="1.0" standalone="no"?><!DOCTYPE svg PUBLIC "-//W3C//DTD SVG 1.1//EN" "http://www.w3.org/Graphics/SVG/1.1/DTD/svg11.dtd"><svg t="1725799017786" class="icon" viewBox="0 0 1024 1024" version="1.1" xmlns="http://www.w3.org/2000/svg" p-id="35995" xmlns:xlink="http://www.w3.org/1999/xlink" width="200" height="200"><path d="M812.16 120.768a38.016 38.016 0 0 0-54.272 0 38.016 38.016 0 0 0 0 54.272l71.04 71.04H409.6a173.888 173.888 0 0 0-47.04-85.312 174.912 174.912 0 0 0-161.344-47.232 173.952 173.952 0 0 0-86.016 47.232 174.912 174.912 0 0 0-47.232 86.016 174.912 174.912 0 0 0 9.728 105.792 174.336 174.336 0 0 0 93.056 93.056 174.912 174.912 0 0 0 164.48-15.104 174.976 174.976 0 0 0 64.832-77.952c4.096-9.728 7.296-19.648 9.536-29.76h419.2l-70.976 71.04a38.016 38.016 0 0 0 0 54.272c15.232 15.232 39.104 15.232 54.336 0l104.32-104.32a83.712 83.712 0 0 0 0-118.72l-104.32-104.32zM143.36 306.816a98.24 98.24 0 0 1 185.984-60.544 97.024 97.024 0 0 1 5.184 60.544 97.216 97.216 0 0 1-26.24 47.04 97.344 97.344 0 0 1-69.376 28.736A98.112 98.112 0 0 1 143.36 306.816z m122.688 323.328l-70.976 71.04H610.56c0.128-5.824 0.32-10.56 0.64-14.08 1.088-16.832 4.096-31.04 8.832-42.56a129.088 129.088 0 0 1 70.08-70.08c11.52-4.8 25.728-7.68 42.624-8.896 9.344-0.64 26.752-0.96 52.416-0.96 25.6 0 43.072 0.32 52.416 0.96 16.832 1.152 31.04 4.096 42.624 8.96 15.808 6.528 29.824 15.872 41.984 28.032s21.44 26.112 28.032 41.984c4.8 11.52 7.744 25.728 8.96 42.56 0.576 9.344 0.896 26.88 0.896 52.48 0 25.6-0.32 43.072-0.96 52.416a136.192 136.192 0 0 1-8.896 42.56 128.192 128.192 0 0 1-47.68 58.112c-6.976 4.672-14.464 8.704-22.4 11.968-11.52 4.8-25.728 7.744-42.56 8.896-9.344 0.64-26.88 0.96-52.48 0.96-25.6 0-43.008-0.32-52.352-0.96a136.192 136.192 0 0 1-42.624-8.96 128.704 128.704 0 0 1-70.08-70.016 136.192 136.192 0 0 1-8.896-42.56 346.88 346.88 0 0 1-0.576-14.08H195.2l70.912 71.04a38.016 38.016 0 0 1 0 54.272 38.016 38.016 0 0 1-54.272 0l-104.32-104.32a83.008 83.008 0 0 1-24.64-59.392 83.2 83.2 0 0 1 24.576-59.328l104.32-104.32a38.016 38.016 0 0 1 54.4 0 38.016 38.016 0 0 1 0 54.272z m471.808 206.72c7.616 0.576 23.36 0.832 47.232 0.832s39.552-0.256 47.168-0.768a63.872 63.872 0 0 0 18.432-3.2 52.032 52.032 0 0 0 28.48-28.544 63.616 63.616 0 0 0 3.2-18.432c0.576-7.616 0.832-23.296 0.832-47.168s-0.256-39.68-0.768-47.232a63.616 63.616 0 0 0-3.2-18.432 52.032 52.032 0 0 0-28.544-28.48 63.424 63.424 0 0 0-18.432-3.2 879.808 879.808 0 0 0-47.168-0.832c-23.872 0-39.616 0.256-47.232 0.768a63.424 63.424 0 0 0-18.432 3.2 52.096 52.096 0 0 0-28.48 28.544 63.68 63.68 0 0 0-3.2 18.432c-0.576 7.616-0.832 23.36-0.832 47.232 0 23.808 0.256 39.552 0.768 47.168 0.64 8.512 1.664 14.656 3.2 18.432a52.224 52.224 0 0 0 28.544 28.48c3.84 1.6 9.92 2.688 18.432 3.2z" fill="#626E85" p-id="35996"></path></svg>